<?xml version="1.0" standalone="no"?>
<!DOCTYPE svg PUBLIC "-//W3C//DTD SVG 1.1//EN" "http://www.w3.org/Graphics/SVG/1.1/DTD/svg11.dtd" >
<svg xmlns="http://www.w3.org/2000/svg" xmlns:xlink="http://www.w3.org/1999/xlink" version="1.1">
<metadata></metadata>
<defs>
<font id="stencil_antique_mnregular" horiz-adv-x="778" >
<font-face units-per-em="2048" ascent="1638" descent="-410" />
<missing-glyph horiz-adv-x="546" />
<glyph horiz-adv-x="0" />
<glyph unicode="&#xd;" horiz-adv-x="546" />
<glyph unicode=" "  horiz-adv-x="546" />
<glyph unicode="&#x09;" horiz-adv-x="546" />
<glyph unicode="&#xa0;" horiz-adv-x="546" />
<glyph unicode="!" horiz-adv-x="788" d="M178 1055l8 67l-2 66l6 65l91 78l57 15l55 26l64 14l94 -71l20 -58l33 -49l-6 -59l-37 -174l2 -47l-37 -101l-22 -34l-2 -41l-19 -62l-2 -39l-6 -41v-110l-12 -33l-27 -39l-28 6l-33 -6l-23 59v62l-14 39l-12 57l-17 53l4 60l-39 47l-12 67l-20 37l-27 37l14 49zM213 213 l20 49l27 43l39 37l47 27l55 -19l52 17l57 -9l43 -36l59 -93v-55l-14 -51l-25 -43l-32 -37l-27 -45l-45 -35h-109l-51 19l-45 30l-8 60l-35 39l2 49z" />
<glyph unicode="&#x22;" horiz-adv-x="999" d="M96 801l10 -2l9 71l10 48l-10 49l16 49l-18 49l24 47l8 49l-14 49l-2 50l21 47l2 28l10 25l12 8l29 -4l45 -12l45 22l45 -18l47 16l45 -22l25 4l16 -17l-18 -26l4 -25l-37 -39l14 -57l-33 -41l-24 -43l-8 -49v-53l-33 -39l-23 -99l-18 -45l-6 -22l-17 -21l-26 4l-58 19 l-57 -6l-16 -19l-2 19zM547 803h4l18 69l-14 52l25 47l-17 49l-10 49l35 47l2 49l-12 49l14 50l-23 49l21 33l24 8l11 6l69 8l45 10l47 -8h45l46 -16l20 -2l8 -13l-6 -24l6 -25l-37 -41l-14 -47l-20 -45l2 -51l-37 -92l-2 -51l-19 -45l-35 -41v-52l-6 -24l-32 2l-11 -12 l-116 4l-17 -19l-2 23z" />
<glyph unicode="$" horiz-adv-x="1253" d="M137 305l29 64l41 47l47 47l68 24l65 -24l45 -43l51 -41l-8 -64l6 -61l-55 -29l-16 -35h-21l-8 -20l20 -20l78 -41l39 -9h31l24 -4l2 49l-8 43l15 45l-2 46l8 45l-15 90l48 -13l36 -34l13 -39v-45l6 -90l-17 -48l-2 -45h27l100 74l41 37l13 119l-45 39l-39 39l-66 22 l-53 31l-74 33l-39 24l-35 29l-65 24l-43 13l-29 30l-22 31l-35 19l-37 59l-29 61l-32 29l-15 119l-10 49l23 45l14 45l29 39v61l36 46l50 32l38 43l48 11l92 38l45 25l28 -4l5 59l38 -10l43 25l-8 -70h41l62 -16l65 4l49 -54l54 -24l45 -43l69 -27l-2 -63l37 -49l-24 -60 l-27 -43l-43 -49l-39 -2l-35 -18l-55 36l-47 19l-80 86l22 53l52 96l-17 35h-53l-66 13l-8 -43l21 -48l4 -45l-19 -47l13 -45l-23 -47l-35 16l-34 37l-21 82l27 45l-9 45l-12 45l-16 -2l-41 -12l-33 -31l-20 -133l6 -43l47 -20l24 -53l62 -19l45 -43l53 -8l49 -19l43 -30 l60 4l39 -60l61 -14l29 -27l22 -34l72 -90l33 -62l6 -35l14 -35l-33 -71l5 -137l-11 -45l-39 -29l-30 -33l-11 -51l-47 -12l-24 -37l-43 -8l-31 -29l-37 -21l-41 -10l-45 4l-43 -8h-29l9 -68l-52 -10l-43 2l-12 74l-16 2l-64 18l-69 3l-35 20l-37 12l-37 6l-27 29l-69 33 l-6 43l-19 31z" />
<glyph unicode="%" horiz-adv-x="1642" d="M82 1141l4 55l70 121l63 31l60 36l63 -14l59 25l23 -6l10 -37l-22 -37l-6 8l-44 -66l3 -47l-7 -88l13 -43l-9 -45l9 -43l-23 -28l37 -54l18 -35l21 -4l-10 -36l18 -37l-35 2l-63 -6l-58 30h-59l-31 51l-63 37l-35 60l12 51l-14 53zM420 -6l33 43l34 88l9 49l34 37l19 43 l4 51l27 39l16 45l27 41l39 33v53l34 35l13 47l6 49l37 35l65 127l19 45l20 41l10 49l39 33l15 47l8 47l59 129l55 80l9 49l26 39l64 -2l59 -8l-37 -29l6 -53l-20 -45l-31 -37l-24 -41l-9 -49l-34 -35l-21 -43l-2 -51l-24 -41l-29 -39l-12 -47l-33 -37l-27 -39l-2 -53 l-18 -43l-78 -121l-23 -41l-18 -43l-23 -43l-30 -37l-9 -49l-22 -43l-12 -47l-39 -33l-6 -49l-27 -41l-6 -49l-37 -35l-25 -41l-49 8zM467 797l14 37l-6 34l14 21l29 18l14 31l17 25l6 28l-29 43l11 45l-5 43l17 45l-6 90l-29 29l-20 35l-27 -6l18 37l-10 41l23 8h65l55 -21 l64 -28l47 -49l29 -62l51 -47l22 -51l-8 -68l-24 -53l-2 -47l-17 -68l-53 -49l-59 -8l-50 -12l-51 -54l-65 19zM827 193v55l13 63l16 49l27 56l24 67l66 23l57 35l53 22l64 -10l22 14l5 -78l-17 -8l-39 -4l-6 -47l-10 -45l10 -43l-12 -45l-8 -45l16 -43l4 -45l-18 -29 l26 -57l31 -25l18 -8l2 -76h-28l-60 27l-59 6l-45 27l-47 20l-49 47l-15 60zM1208 489v37l13 33h20l62 -8l63 8l64 -31l38 -57l62 -41l22 -61l9 -56l-21 -163l-35 -54l-53 -39l-31 -49l-49 -26l-162 -13l11 37l2 31l16 14l37 21l-2 41l6 24l2 27l16 45l-24 43l16 90l-18 43 v92l-31 23z" />
<glyph unicode="&#x26;" horiz-adv-x="1525" d="M96 315l29 111l14 35l17 69l24 37l21 41l35 37l55 14l67 50l80 49l35 -45l-2 -64l-4 -31l-8 -28l8 -29l25 -24l24 -41l2 -54l35 -36l8 -50l35 -34l29 -41l22 -41l12 -50l37 -14l17 -12l12 -33l27 14l43 -47l32 -45l-20 -6l-96 -98l-90 31l-66 -19l-51 16l-47 19l-43 12 l-52 -2l-30 31l-39 14l-27 35l-39 20l-20 39l-45 23v47l-12 39zM416 1055l10 39l4 39l29 32l6 41l57 45l23 29l26 27l33 47l53 24h62l51 33l47 -31l45 25l25 -8l-4 -49l8 -41l2 -41l-57 -35l-19 -49l2 -35l21 -29l-4 -43l26 -43l31 -39l25 -41l30 -39l13 -49l28 -39l10 -49 l43 -33v-55l43 -33l21 -45l33 -37l12 -49l51 -82l29 -41l-2 -55l47 -31l-6 -59l37 -35l10 -49l29 -29l59 -32l25 -29l2 -31l-5 -37l-30 -6l-33 -14l-47 18l-94 -10l-45 4l-48 -8l-47 12l-47 -14l-47 -8l-47 8l-16 49l-25 39l-29 39l-18 43l-45 82l-33 37l-8 47l-20 43 l-43 28l-27 93l-23 41l-18 45l-39 30l-33 35l-10 49l-29 39l-16 43l-12 47l-25 41l-24 35l-15 39zM969 1260l10 61l-6 57l33 -6l49 -45l73 -33l15 -39l20 -32l13 -35l-5 -41l13 -60l-15 -67l-36 -25l-31 -24l-33 -62l-31 -18l-14 57l-45 35l22 25l33 65l35 21l-6 45l2 39 l-21 30l-20 25l-27 22zM1194 778v35l18 35l19 20h26l48 23l32 -39l23 -12l14 -27l-8 -29l14 -28l-6 -70l-45 -117l-33 -22l-12 -39l-33 -14l-8 55l-33 43l7 6l18 55l-10 35l-2 66z" />
<glyph unicode="'" horiz-adv-x="569" d="M96 799h10l11 71l12 48l-8 49l-4 49l-8 49l14 49l2 49l-6 49l28 125l15 21l20 -12l19 20l47 4l45 -12l45 8l45 -20l45 30l31 -16l16 -23l-24 -26l-13 -70l-12 -49l-29 -41l2 -53l-26 -43l-15 -47l-2 -52l-45 -36l-8 -50l6 -53l-30 -10l-13 -21l-20 -8l-58 -6l-57 19 l-16 -11l-4 13z" />
<glyph unicode="(" horiz-adv-x="753" d="M82 655l29 47l-2 54l6 51l35 43l-3 59l43 43l-4 64l37 39l25 45l18 47l51 78l37 30l21 39l37 25l22 35l19 43l47 16l129 80l35 -12l6 -25l-2 -22l-11 -27l-49 -23l-24 -34l-13 -45l-43 -35l-10 -58l-37 -38l-65 -93l-13 -84l-30 -32l-8 -54l-17 -49l6 -55l-6 -47l-26 -45 l4 -47l10 -58l-6 -55l-29 -59l29 -56l8 -49l-14 -51l36 -43l-12 -55l8 -54l31 -45l-2 -45l23 -35l4 -43l65 -92l21 -51l37 -39l24 -47l35 -29l12 -47l49 -20l17 -23l-4 -26l2 -31l-43 -14l-37 22l-103 53l-18 45l-41 35l-29 45l-41 33l-34 39l-25 43l-16 49l-60 29l-20 53 l2 62l-49 36l-2 54l-25 98l-20 47l8 51l-27 49l-6 52l10 53l8 6l-18 49z" />
<glyph unicode=")" horiz-adv-x="755" d="M82 -354l10 24l66 45l18 39l17 43l32 41l43 37l11 55l34 45l2 60l43 26l-8 48l29 32l12 52l19 49l-11 57l25 43l-4 51l20 105l19 57l-25 55l-6 56l16 51l-14 45l-20 45l-17 49l4 55l-26 47l4 46l-43 71l-17 53l-26 52l-64 86l-41 34l-22 35l-10 47l-48 25l-10 29l-12 20 l16 25l37 26l43 -14l51 -51l29 -35l39 -21l20 -40l50 -13l26 -35l29 -30l27 -39l12 -49l33 -33l26 -43l33 -43l18 -47l7 -60l12 -53l16 -51l53 -94l-12 -56l17 -47l10 -49l-12 -49l8 -6l-11 -51l-16 -52l10 -53l-18 -45l-12 -49v-49l-5 -55l-36 -41l-2 -56l-45 -39l-21 -51 l-8 -61l-27 -43l-33 -39l-77 -72l-29 -45l-33 -41l-41 -22l-28 -35l-68 -25l-37 -18l-43 6z" />
<glyph unicode="*" horiz-adv-x="958" d="M178 944l25 47l45 13l51 10l23 14l30 -2l54 4l12 39l-25 18l-35 35l-55 11l-59 -11l-41 23l-17 47l9 49l43 10l36 17l25 -33l41 -43l43 -33l33 -35l28 11l15 16l4 47l-37 105v34l-2 41l51 4l39 -4l35 -32l-2 -37l-21 -21l9 -41l-35 -41l-8 -43l18 -22l25 6l81 53l31 51 l43 15h39l23 -25l2 -31l-31 -80l-61 13l-46 -43h-49l-10 -27l16 -14l39 -23l21 -16l35 12l28 -16l62 -25l24 -45l-18 -37l-16 -24l-27 -8l-49 28l-70 53l-22 15l-35 37l-33 4v-25l14 -45l-4 -57l35 -49l-18 -45l-23 -35l-35 -13l-30 17l-41 26l16 41v62l39 41l8 47l-20 31 l-39 2l-25 -39l-53 -25l-33 -47l-20 -39l-52 -2l-24 43z" />
<glyph unicode="+" horiz-adv-x="1296" d="M0 506v149h573v506h150v-506h573v-149h-573v-506h-150v506h-573z" />
<glyph unicode="," horiz-adv-x="772" d="M178 -211l12 25l35 10l37 37l43 24l66 80l28 29l-18 22l-49 -10l-115 60l-24 67l-13 68v41l33 28l8 39l37 19l25 22l28 19l35 8l37 2l41 -12l51 2l37 -29l51 -68l4 -43l25 -36l4 -43l-31 -109v-47l-28 -41l-39 -33l-31 -45l-45 -29l-62 -26l-34 -58l-29 -16l-29 -8 l-43 10l-30 10z" />
<glyph unicode="." horiz-adv-x="745" d="M178 117l12 49l-10 51l19 47l34 37l39 33l47 6l46 31l55 -6l53 -13l45 -35l29 -47l16 -51l4 -53l-8 -51l-27 -43l-16 -56l-53 -14l-98 -16l-54 -25l-39 43l-51 16l-16 54z" />
<glyph unicode="/" horiz-adv-x="815" d="M82 -76l10 68l35 39l14 45l21 43l8 47l20 43l-8 53l37 37l19 45l4 49l22 41l21 45l12 45l6 49l23 41l4 50l16 45l39 36l23 43v101l38 35l-4 53l27 41l8 47l21 43l32 39l13 47l-4 51l28 41l13 45l32 39l-6 53l68 -20l59 16l-24 -41l-31 -90l6 -53l-22 -41l-31 -41v-49 l-41 -37l-12 -45l8 -53l-31 -41l-20 -43l-25 -41l-43 -137l-18 -43l8 -54l-41 -37l-13 -45l7 -53l-41 -35l-23 -43l-8 -47l2 -51l-55 -82l10 -53l-29 -41l-14 -45l-21 -43l-16 -45l-4 -49l-70 6z" />
<glyph unicode="0" horiz-adv-x="1298" d="M102 682l17 57l-17 60l41 47l21 145l12 39l31 31l18 41l8 49l29 37l33 35l27 39l53 8l22 37l33 24l45 8l37 27l39 23l45 -5l35 7l12 -58l-25 -53h-4l-32 -16l-37 -27l-8 -49v-49l-13 -49l21 -48l-23 -49l-2 -49l17 -49l-25 -96l31 -49l-27 -50l6 -49l23 -47l-8 -49l2 -49 l6 -49l-19 -49l13 -97l-4 -49l-23 -49l20 -35l-12 -41l23 -33l24 -18l25 2l14 -51l-22 -51l-19 8l-51 8l-45 27l-51 12l-49 20l-33 54l-55 26l-25 33l-33 76l-41 39l6 59l-45 41l-6 55l-22 52l10 57l-4 43l6 43zM653 37l25 53l37 25l28 26l23 41l-4 99l22 96v49l-6 49 l-16 49l24 49l-10 48l2 49l-10 49l14 96l-20 49l2 49l8 50l-14 49l4 47l20 49l-20 49l16 37l-4 37l-20 31l-29 8l-18 8l8 55l-10 51l30 -2l49 -14l54 -8l34 -45l46 -25l61 -18l39 -45l8 -45l43 -19l18 -35v-59l21 -47l49 -39l14 -55l-10 -113l23 -41l14 -43l-22 -100l-9 -56 l21 -55l-41 -47l-14 -43l-11 -45l2 -45l-43 -74l-14 -47l-37 -31l-51 -79l-39 -27l-43 -10l-111 -58l-41 -14l-43 -2l-32 -25z" />
<glyph unicode="1" horiz-adv-x="962" d="M164 53l26 41l35 4l35 29l45 16l-4 47l-18 46l4 47v47l6 47l18 47l-26 141l20 45l-20 47l24 48l-26 47l22 47l-16 94l6 92l12 47l-12 47l2 47l12 41l-18 41l-37 21l-35 14l-39 8l4 82l35 15l45 -21l47 8l45 25l47 -23l46 17l47 -6l92 10l47 -10l45 24l4 -53l-18 -47 l2 -47l22 -47v-95l-8 -47l12 -47l-24 -47l4 -47l16 -47v-94l-14 -47l-12 -95l24 -47l-18 -47l18 -47l-22 -47l24 -94v-45l-20 -47l4 -48l10 -43l31 -28l41 -4l39 -15l4 -45l-8 -35l-37 -6l-39 -26l-82 6l-47 16l-49 2l-48 -6l-49 -20l-47 20l-49 10l-47 -28l-33 14l-45 -10 l-26 33z" />
<glyph unicode="2" horiz-adv-x="1247" d="M129 137l66 47l14 68l57 27l21 55h65l49 39l62 -17l53 -8l70 8l24 -4l66 -28h59l60 6l47 -27l53 12l37 -12l43 21l16 41l8 34l19 33l41 17l28 -19l13 -35l16 -65l-29 -35l-12 -39l-22 -41l-15 -43l-41 -59l-73 -64l-33 -14l-29 -37l-43 4l-65 -12l-62 18l-45 -10l-39 18 l-98 21h-39l-61 16l-52 4l-39 13l-30 2l-58 -29l-28 -20l-27 -13l-35 60zM143 1155l29 43l25 47l49 25l41 26l30 47l54 5l39 16h47l32 16l17 -51l-21 -53l-14 4l-14 -27l-21 -8l2 -20l15 -21l30 -10l66 -78l-23 -63l-8 -64l-47 -47l-6 -51l-43 -6l-35 -17l-41 -10l-67 25 l-78 65l-23 31l-28 33v41l6 49zM260 383l14 51l45 19l19 53l49 26l45 39l62 29l24 29l31 20l12 39l45 33l33 61l4 39l12 35l7 68l8 39l4 38l-27 123l12 41l-8 31l-20 41l-27 37l-26 2l-15 55l25 53l26 2l41 -18l43 10l39 -18l39 -12l51 8l35 -33l35 -27l45 -14l51 -63 l29 -29l53 -96l-20 -43l10 -35l-2 -35l6 -37l-41 -100l-20 -33l-9 -41l-20 -33l-68 -30l-10 -45l-41 -7l-53 -34l-135 -56l-41 -24l-51 -37l-60 -12l-55 -25l-23 -29l-98 13l-22 -41l-37 4z" />
<glyph unicode="3" horiz-adv-x="1239" d="M123 287l14 37l2 41l60 43l16 32l23 35l41 -2l36 21l66 -33l37 -2l26 -27l45 -53l35 -60l-6 -43l-31 -38l-10 -31l-22 -19l-19 -24l-20 -14l-17 -23l25 -18l25 -11l45 2l18 -18l14 -47l-20 -53l-17 8l-98 14l-59 25l-60 12l-45 51l-26 58l-37 22l-6 41l-15 35zM176 1040 l6 86l15 41l22 35l17 43l34 31l29 35l39 22l37 4l37 11l34 16l39 4l25 21l6 -60l2 -51l-18 -12l-33 -2l-23 -29l-2 -18l66 -54l24 -102l-2 -68l-61 -35l-14 -34l-31 -15l-31 -24l-37 -2l-59 26l-49 29l-70 31zM524 743l37 27l31 -2l31 6h24l29 21l26 24l-14 55l8 39l17 45 l-17 91l4 90l-2 51l-8 43l-28 16l-37 27l-25 4l-16 51l-2 53l43 -2l45 9l43 -5l82 -18l36 -16l41 -6l64 -48l31 -32l43 -17l30 -28l19 -39l10 -35l18 -35l-6 -41v-41l17 -37l-13 -35l-4 -71l-59 -41l-23 -68l-49 -41l-65 2l-29 -20l-47 -12l43 -27l37 4l51 -55l107 -58 l40 -57l11 -37l14 -35l-8 -41l12 -36v-78l-16 -70l-29 -35l-24 -37l-72 -51l-33 -35l-39 -28l-45 -23l-47 -18l-45 2l-39 -17l-49 -4l-49 27l-29 -14v51l4 53l23 2l43 35l28 76l15 26l10 49v48l-31 49l13 47l4 47l-7 49l-8 37l-18 43l-6 31l-27 8l-20 14l-29 6l-33 2l-22 23 l-11 27z" />
<glyph unicode="4" horiz-adv-x="1234" d="M88 330l8 41l-4 41l17 30l6 33l24 12l31 37l53 82l17 49l49 25l16 47l33 37l22 43l29 39l37 35l20 43l25 43l45 26l-8 -43l10 -49l-41 -86l-28 -39l-23 -43l-59 -78l-21 -47l-47 -24l-25 -43l-28 -39l-10 -53l-50 -25l54 8l90 -12h88l45 -10h45l4 -43l-12 -50l-41 -2 l-49 -6l-52 19l-49 -6l-49 -19l-51 29l-49 -25l-39 10zM469 55l2 47l41 7l41 10l16 33l6 38v48l9 49l-2 47l20 49l-31 49l4 47l27 49l2 50l-4 47l-16 49l18 49l-14 47l14 49l-8 47l8 49l-22 50l12 47l2 49l-16 49l45 29l22 39l29 34l20 41l15 45l41 25l12 25l22 14l25 -2 l27 12l45 -18l43 22l22 -20h19l2 -21l-4 -26l26 -45l-20 -47l10 -48l-6 -47l16 -47l-20 -47l16 -47l-16 -47l-8 -47l22 -45l-25 -47l29 -47l-29 -48l31 -47l-4 -47l-22 -47v-94l-7 -47l101 -8l41 18l30 -31l19 -28l-14 -33l-41 -10l-60 4l-59 -17l-10 -39l14 -43l10 -41 l-16 -45l35 -36l38 -13l33 -6l6 -35l-2 -32l-30 -23l-43 -12l-33 12h-49l-49 16l-48 -24l-49 2l-49 -2l-47 10l-49 2l-82 -2l-41 10l-31 13z" />
<glyph unicode="5" horiz-adv-x="1245" d="M137 274l8 41l-8 39l51 99l41 8l66 37l37 10l131 -64l49 -51l16 -65l-12 -60l-49 -45l-10 -33l-15 -22l-20 -4l-19 -17l15 -30l28 -13h43l19 -10l8 -49l4 -55l-49 4l-43 -8l-45 16l-47 57l-62 19l-63 31l-43 94l-27 30zM197 719l10 43l18 43l-22 45l22 43v45l-14 45 l59 -20l49 8l-20 -51l6 -54l-4 -51l-8 -51l41 10l26 37l50 10l39 19l57 45v-105l18 -47l-49 -8l-39 -12l-30 -17l-39 -16l-43 -6l-41 -43l-39 16l-31 -2l-12 35zM223 1106l27 45l-21 49l9 47l24 45v49l4 48l35 -5h51l51 -4l48 -30l53 20l45 -22l47 12l47 -2l47 8l47 -33 l37 21l37 -4l66 4l36 -6l35 24l70 -4l29 33l-11 -64l-37 -43l-4 -61l-61 -27l-21 -65l-69 -4l-80 -76l-55 12l-45 -20l-50 -6l-41 -21l-45 18l-45 -12h-45l-43 19h-92l-45 14l-25 -6zM578 879l61 -2l43 -11l45 13l35 -25l43 10l45 -16l37 -31l69 -49l33 -33l41 -28l23 -39 l18 -43l2 -41l6 -39l29 -43v-49l-4 -52l-23 -100l-34 -92l-25 -47l-27 -41l-49 -19l-37 -22l-28 -39l-45 -18l-50 -9l-34 -18l-41 -16l-39 12l-37 -2l-41 -15l8 68l10 55l13 2l30 41l15 25l8 22l10 54l-6 47l18 53l-20 51l4 51l10 52l-18 51l22 31l-8 22l-10 53l-18 52 l-70 28l16 49l-12 49z" />
<glyph unicode="6" horiz-adv-x="1253" d="M96 674l8 43l-4 45l6 100l44 47l-21 68l53 45l-8 65l45 41l33 50l49 34l61 105l41 14l46 4l32 27l56 2l51 10l28 19l17 -58l-33 -51l-14 -2l-29 -14l-18 -21l-15 -24l6 -35l-16 -47l-6 -49l14 -50l-10 -47l-4 -49l6 -47l-14 -49l24 -47l-8 -49l-4 -47l8 -50l2 -49 l-18 -47v-49l16 -47l-6 -49l8 -47l-14 -50l-6 -49l26 -47l-10 -94l41 -35l33 -8l20 -47l-10 -53l-31 10l-45 -2l-53 29l-16 51l-45 10l-37 33l-49 8l-52 31l-26 45l-49 32l-9 58l-12 51l-61 107l-6 55l22 57l-29 55zM588 743l102 33l66 6l59 39l59 -43l78 13l56 -54l53 -39 l35 -55l12 -68l49 -53l2 -71l-16 -80l-23 -41l-10 -41l-2 -60l-43 -36l-33 -33l-45 -76l-39 -18l-41 -25l-45 -12l-47 -9l-39 -34l-41 -13l-43 17l-24 2l-13 47l4 53l27 6l33 15l16 30l8 43l-14 47l-2 48l6 47l15 47l-25 47l14 92l13 47l-31 41l-8 43l-25 2l-22 12l-21 -14 l-53 -10l2 51zM678 1042l29 56l30 32l29 52l10 45l-22 37l-33 24l-29 2l-12 45l25 49l12 -4l57 13l62 -15l53 -24l41 -41l63 -31l35 -59l21 -29l4 -37l12 -67l-2 -37l-8 -37l-43 -60l-88 -51h-37l-60 8l-51 23l-63 39z" />
<glyph unicode="7" horiz-adv-x="1069" d="M82 924l22 53l-8 49l17 47l-9 49l23 45l-2 50l6 47v47l31 45l20 -10l37 16l-14 -62l2 -59l22 21l37 22l35 27l2 12l86 57l49 13l54 8l57 -19h41l10 -10l78 -22h41l33 -27l49 -25h35l28 19l33 4l21 31l51 -6l4 -31l-17 -86l-24 -37l-29 -62l-18 -57l-51 -35l-56 -32 l-59 10l-55 -10l-50 4l-39 16l-26 2l-111 23l-43 2l-92 43l-43 -17l-47 -2l-35 -35l-18 -41l4 -47l-12 -22l-31 6zM285 244v37l20 38l-18 46l35 32l6 43l26 35l43 72l25 31l20 59l39 41l54 27l8 47l94 77l43 43l-2 50l41 18l33 8l39 4l30 15l-28 -37l-25 -39l-6 -45l-4 -74 l-56 -51l13 -43l-15 -35l-16 -111l16 -51l-2 -43l4 -55l19 -117l14 -55l-35 -61v-62l-30 -43l-39 -39l-70 -12l-63 10l-66 -16l-41 43l-55 43l-19 30l-14 33l-4 72z" />
<glyph unicode="8" horiz-adv-x="1241" d="M102 289l15 57l-6 41l12 39l29 35l8 53l65 80l70 57l35 23l41 4l28 20l45 19l-43 10l-39 -2l-45 33l-55 18l-26 43l-48 25l-10 98l-31 47l-8 53l13 54l34 43l-10 59l37 37l31 37l51 12l22 53l52 9l90 20l49 -4l47 22h51l-33 -49l15 -45l-23 -6l-12 -51l-35 -47l4 -37 l-6 -47l23 -45l-21 -45l-6 -47l8 -45l-4 -48l6 -34l25 -29l18 -47l29 -2l-4 -53v-56l-49 -33l-6 -36l-15 -39l-6 -47l8 -50l-2 -49l8 -49l13 -49v-49l-23 -49l14 -41l-8 -49l47 -9l11 -12l20 -53l-12 -47l-23 -8l-39 4l-39 10l-40 6l-54 -6l-51 10l-59 19l-37 51l-41 35 l-33 45l-33 34l-22 43zM647 760l27 16l33 27l24 35l2 34l-16 48l8 45l-8 47l4 45v45l14 47l-8 37l-25 49l-28 35l-19 12l-8 53l10 49l35 -14l51 21l48 -15l43 -20l38 -23l46 -16l38 -29l31 -33l43 -24l55 -137l7 -52l14 -53l-16 -53l-19 -43l-37 -33l-20 -43l-37 -31 l-47 -28l-43 -41l-35 -8l-51 10l43 -31l37 8l34 -24l76 -35l37 -37l41 -33l10 -57l51 -82l9 -41l-9 -41l3 -55l-3 -58l-20 -45l-57 -90l-58 -16l-49 -25l-43 -47l-55 4l-51 -8l-39 -14l-39 4l-41 -12h-21v53l-4 53l68 23v47l4 41l-12 49l2 49l6 49v49l-8 49l20 50l-16 47 l8 41l-12 39l-37 14l-14 25l-3 45z" />
<glyph unicode="9" horiz-adv-x="1255" d="M96 848l10 74l-4 41l25 36l16 41v45l25 48l37 41l18 40l23 41l39 17l20 43l51 8l41 23l88 28l43 -4l39 6l25 15l10 -56l-18 -49l-13 4l-24 -35l-23 -22l4 -41l-6 -49l10 -94l-22 -48l18 -49l2 -47l-14 -141l43 -23l10 -26l25 -2l24 6l23 20l25 6l-7 -59l17 -57l-31 -6 l-67 -43l-68 -31l-64 39l-69 -25l-119 78l-57 33l-43 51l-33 59zM184 283l13 77l22 31l31 23l47 53l41 -6l35 18l67 10l60 -32l35 -68l28 -119l-47 -96l-29 -29l23 -34l35 -7l24 -10v-57l15 -51l-43 -6l-54 4l-53 43l-55 6l-45 30l-62 31l-45 53l-16 31zM643 -23l19 60 l-5 49l11 16l32 4l25 50l6 28l6 97l6 49l17 47l2 49l-27 98l19 47l-25 50l29 49l-23 96l4 49l21 49l-6 47l-2 50l-15 98l2 47l11 49l-21 43l8 49l-37 37h-34l-15 51l19 49h32l21 -28l51 8l19 -35l36 -4l11 -22h37l38 -29l39 -4l31 -53l43 -35l23 -52l16 -51l10 -51l23 -55 l35 -51l10 -109l14 -57l-12 -60l14 -43l-18 -43l10 -43l-41 -106l6 -64l-20 -55l-31 -49l-35 -45l-8 -66l-41 -47l-53 -26l-35 -54h-49l-25 -39l-47 2l-45 -36l-55 -9z" />
<glyph unicode=":" horiz-adv-x="759" d="M178 223l53 94l54 15l41 33l51 -5l55 11l51 -23l29 -47l37 -35l14 -49l21 -49l-19 -49l-26 -43l-19 -49l-51 -15l-43 -24l-47 -8h-51l-52 10l-24 51l-37 33l-16 47zM190 766l19 96l-10 60l37 39l45 28l45 25l51 16l53 -22l51 -15l27 -49l57 -20l15 -109l-9 -51l-43 -98 l-51 -19l-53 -4l-47 -35l-47 25l-49 12l-48 25l-34 41z" />
<glyph unicode=";" horiz-adv-x="770" d="M178 127l17 74l-7 39l41 65l19 35l26 29l35 16l37 8l39 -18l51 20l33 -45l35 -22l28 -31l33 -27l19 -37l10 -83l-29 -109l-2 -45l-22 -43l-105 -119l-71 -16l-41 -49l-25 -19l-31 -4l-39 6l-34 2l-5 33l9 23l20 28l39 33l57 4l64 86l8 31l-8 14l-41 27l-62 -15l-34 64z M182 868l31 43l27 43l39 35l43 31l53 -6l55 2l41 -39l55 -12l47 -97l2 -53l-18 -47l-8 -51l-39 -33l-31 -47l-49 -27l-55 15h-49l-47 22l-43 27l-43 37l6 104z" />
<glyph unicode="?" horiz-adv-x="1200" d="M178 1153l8 51l27 37l55 41l17 41l32 20l54 25l61 -2l53 14l54 -2l24 23l-18 -64v-45l-25 -12l-14 -35l16 -31l4 -24l19 -29l-19 -31l11 -71l-45 -51h-74l-60 -25l-120 27l-45 67l6 41zM289 221l26 47l31 45l39 35l49 27l55 -21l50 -4l45 -22l53 -15l27 -47l4 -51l39 -49 l-43 -45l-7 -51l-16 -54l-49 -26l-57 4l-48 -31l-53 2l-35 45l-43 23l-37 37l-20 47zM395 838l37 36l41 17l62 6l55 21l53 43l49 45l-6 65l19 33l4 37v41l-23 32v29l-12 25l-25 8l10 57l-12 56l35 -13l43 6l39 -20l33 -33l39 -20l32 -31l54 -12l28 -33l8 -47l37 -35l11 -47 l18 -45l-16 -47l8 -45v-45l-25 -43l-20 -43l-41 -127l-72 -54l-29 -34l-41 -23l-49 -6l-39 -8l-36 -15l-37 -18l-41 8l-31 -4l-37 -18l-6 -21l-12 -27l8 -40l-16 -19l-27 -2l-27 4l-22 21l4 84l-6 51l-17 49l21 51v49l-8 51z" />
<glyph unicode="A" horiz-adv-x="1355" d="M41 57l8 33l39 12l37 23l18 22l25 13l14 24l21 25l6 41l31 84l26 41l8 47l-2 51l25 41l10 47l2 49l19 43l24 43l-8 52l27 92l24 41l8 47l31 41l-4 51l4 47l19 45l18 -53l29 -47l-11 -58l3 -53l-9 -41l-2 -49l-8 -47l-2 -49l-33 -41l-26 -90l-2 -49l-21 -46l-22 -92 l-23 -45l4 -49l-26 -43l-13 -39l25 -43l16 -37l62 -51l26 -10l11 -27l-13 -24l-20 -19l-41 -12l-49 4l-52 12l-51 -12l-51 12l-49 4l-43 -24l-25 35zM428 379l35 80l43 2l88 -15l45 29l45 -14l-18 45l4 51l-27 43l4 51l-4 49l-25 45l-14 46l-4 49l-25 45l-10 47l13 53 l-29 43l-2 49l-6 49l-15 48l-20 45l-14 47l32 47l-8 55l59 -2l50 4l51 -14l51 8l49 14l51 -24l52 18l49 -14l-4 -43l43 -39l-9 -51l29 -43l-14 -54l10 -47l6 -49l33 -41l16 -47l4 -47l11 -49l-4 -49l12 -47l24 -43l13 -97l16 -47l21 -45l28 -92l-2 -49l4 -49l15 -45l10 -47 l18 -48l11 -38l10 -27l31 -31l28 -8l27 -33l-8 -41h-39l-35 -24l-51 10l-49 18l-50 -2l-51 -10l-49 8l-51 -2l-49 -24l-49 22l-52 -16l-49 -6l-53 43l-12 22l14 29l14 12l54 68l-7 82l-32 43v51l-45 12l-48 -4l-47 -18l-45 16l-94 -6z" />
<glyph unicode="B" horiz-adv-x="1462" d="M123 53l12 41l66 21l26 67v47l15 50l-4 47l-21 47l23 47l-23 96l16 47v49l-14 47l25 48l-11 47l-14 49l10 47l-4 47l19 47l-17 49l-12 47l12 47l-12 48l18 88l-32 30l-33 9l-27 14l-6 37v35l33 2l35 24l26 -12l50 12l49 -22l49 30h51l49 -28l101 -4l49 6l49 -2l-6 -35 l10 -47l-6 -47l10 -47l-12 -48l-8 -47l-5 -47l11 -47l-2 -47l2 -47l-2 -47l20 -47l-4 -47l-22 -47l4 -48l20 -47l-24 -47l28 -47l-2 -47l-29 -47l17 -47l-6 -47l22 -47l-30 -47l26 -48l-10 -94l12 -47l-4 -47l-59 10l-49 -8l-52 8l-98 -4l-51 2l-49 6l-99 -18l-26 4l-33 16 l-29 9zM739 1311l21 55h108l45 6l41 -22l41 16l39 -10l41 -21l37 -22l49 4l33 -27l23 -35l38 -14l17 -35l24 -28l2 -68l29 -31l14 -35v-38l-14 -35l-12 -72l-35 -31l-16 -45l-41 -16l-31 -27l-31 -20l-39 -2l-32 -29l-41 -12l-31 8l-33 -12l39 -2l25 -17l73 -10l62 -25 l30 -43l72 -59l17 -43l30 -33l19 -41l-4 -49l-15 -45l6 -45l-10 -43l-16 -35l-6 -39l-15 -37l-30 -26l-37 -19l-21 -39l-49 -12l-43 -14l-37 -21l-43 2l-67 -8l-45 -22l-48 8l-57 22l-57 -2l-17 37l33 53l8 -6l31 25l33 -4l14 33l25 20l14 57v29l-10 90l8 47l-2 45l-18 45 l28 50l-33 49l-12 30l-24 23l-52 2l-26 16l-8 50l24 53l17 14l32 -8l17 29l53 55l-14 82l24 43l-8 43l12 43l-12 43l4 43l-10 49l-33 8l-16 23l-23 16h-24l-35 19z" />
<glyph unicode="C" horiz-adv-x="1300" d="M82 582l22 45l-20 43l8 45l14 43l-2 45l17 41l14 82l23 53l-2 63l28 54l54 32l10 46l31 30l34 27l25 37l43 14l25 41l38 27l45 16l52 -6l47 45l61 2l35 -4l-14 -51l12 -41l-12 -41l-13 -6l-24 -7l-23 -22l-16 -25l-10 -22l-6 -53l-17 -37l8 -49l-12 -50l4 -49l-8 -47 l20 -49l11 -49l-31 -96l31 -50l2 -49l-21 -49l6 -47l2 -49l-10 -49l15 -49l-23 -48l2 -49l23 -43l-2 -26l6 -27l10 -27l37 -43h26l27 -10l-2 -39l-10 -41l10 -41l-31 -10l-59 2l-53 27l-54 6l-92 33l-37 22l-30 33l-33 29l-51 69l-31 31l-10 43l-35 29l-35 82l-14 45l8 43 l-21 39l-8 41zM756 16l16 39l-2 41l18 -4l86 60l62 -13l20 39l29 41l43 37l16 43l27 37l10 37l17 20l26 6l29 -8l21 -20v-29l12 -49l-17 -49l-51 -31l6 -49l-37 -21l-22 -30l-94 -45l-39 -74l-45 14l-29 -24h-53l-39 -7zM756 1391l78 -11l43 -24l30 -6l51 -4l37 -21l43 4 l23 19l10 24l31 17l24 8l23 -13l12 -22l31 -33l-25 -45l19 -47l6 -47l-27 -45l4 -47l-6 -45l11 -47v-45l6 -48l-11 -41l-16 -24l-31 -2l-22 4l-21 20l-14 35l-35 62l-12 45l-23 51l-10 65l-47 39l-35 43l-47 29l-31 25l-32 6l-27 -6v47l12 41z" />
<glyph unicode="D" horiz-adv-x="1425" d="M123 1313l8 35l35 8l35 20l26 -12l49 2l50 -8l51 22l49 -24l49 14l49 10l51 -28l50 -4l49 8l-2 -37l12 -47l2 -47l-18 -47l16 -48l-14 -47l12 -47l8 -47l-16 -47l6 -47l-21 -47l31 -47l-12 -47l8 -47l-18 -48v-47l14 -47l-6 -47l8 -47l-6 -47l-12 -47l18 -94l-2 -47 l-12 -48l-6 -47l12 -94l-17 -47l-34 -4l-50 6l-51 -16l-49 6l-49 -6l-49 8l-51 2l-50 18l-49 -22l-26 8l-39 -4l-25 27l-12 30l4 45l39 2l29 17l26 28l-8 37l6 47l23 97l-11 47l-16 47l19 49l-13 47l-8 47l8 49l-8 47l18 95l-12 49l19 47l-9 47l-12 47l8 49l13 47l-21 47 l-8 48v49l14 37l-28 26l-33 6l-35 15zM737 53l13 56h34l31 34l33 2l26 58l5 26l2 58l-19 45l8 47l4 47l-14 45l4 47l-6 47l12 45l2 47l-12 48v45l17 47l-7 47l2 45l-4 47l11 47l6 45l-6 47l-19 41l4 41l-14 45l-31 33l-43 10l-20 15l-6 51l14 55l16 8l64 -18h49l49 -35l78 6 l37 -27l20 -47l33 -26l41 -17l18 -41l70 -69l2 -62l25 -37l51 -129l12 -53l14 -110l-22 -47l18 -48l-12 -47l-6 -47l2 -47l-33 -39l-18 -37v-41l-23 -34l-6 -66l-53 -37l-29 -33l-26 -36l-33 -27l-31 -33l-41 -14l-39 -21l-51 -45l-53 -18l-45 8l-62 -10l-24 6z" />
<glyph unicode="E" horiz-adv-x="1306" d="M123 1313l14 37l35 16l113 -6l49 -10l49 24l51 2l49 -20l49 16l50 6l51 -22l49 -2l-2 -35l4 -47l10 -47l-6 -47l-12 -48l4 -47l10 -47l-10 -94l-12 -47l16 -47l-14 -47l16 -47l-12 -47l18 -48l-6 -47v-94l-20 -47l2 -47l28 -47l-26 -94v-47l10 -48l14 -47l-20 -47l16 -47 v-47l-57 6l-51 -8l-50 18l-49 -18l-49 2l-51 -14l-49 20l-49 -6l-49 14l-66 -16l-27 22l-18 31l14 45l35 10h35l33 35l-19 41l29 47l-23 50l23 47l-25 47l11 47l2 49l-9 47l15 47l-19 49l13 47l8 48l-23 47l19 49l-15 47l21 47l-12 47l2 49l-7 47l-14 47l17 48l-5 49l-8 35 l-22 20l-25 29l-24 14zM745 1307l19 59l47 -12l45 16l45 -14l45 12l45 -10l45 22l45 -16h45l45 -4l-2 -45l15 -51v-52l-15 -51l11 -49l-17 -51l6 -51l-10 -43l-35 -23l-61 49v33l-8 27l-21 37l-26 26l-21 41l-35 29l-34 20l-48 4l-34 13l-33 24l-37 13zM750 754l45 8l14 26 l25 13l26 22l6 33l31 45l23 66l57 2l24 -58l-6 -73l21 -47l-33 -50l16 -47l-12 -47l10 -47l-6 -96l6 -39l-47 -51l-28 16l-25 27l4 26l-27 25l5 31l-21 30l-16 31l-27 23l-27 16l-24 -4l12 61zM766 2l10 51l-2 53h14l76 27l37 25l49 18l31 29l35 26l6 48l41 47l29 41l-5 39 l25 22l27 10l22 -20l13 -17l10 -98l-10 -51l2 -51l22 -49l-2 -52l-25 -49l17 -51l-49 14h-95l-45 -22l-47 14l-47 -12h-47l-47 18z" />
<glyph unicode="F" horiz-adv-x="1257" d="M123 51l20 41l93 51l-9 39l11 47l4 50l-15 47l25 47l-27 47l11 49v47l12 47l-10 49l4 47l-13 48l-2 47l15 49l2 47l-2 47l2 47l6 49l-19 47v144l7 39l-33 24l-31 10l-24 21l-19 35l10 33l35 6l33 20h27l49 -8l51 12l49 4l49 -22h49l52 -8l49 12l49 -8l49 18l10 -53v-47 l-12 -47l-6 -47l12 -48l6 -47l-8 -47l8 -47l6 -94l-8 -47l-14 -47l-8 -47l24 -47l2 -48l-20 -47l22 -47l-2 -47l-16 -47v-47l16 -47l-20 -47l2 -45l14 -47l-12 -48v-45l37 -36l41 -9l26 -14l17 -31l-6 -35l-31 -28l-45 20l-33 -6l-49 8l-51 -24l-49 12l-50 -6l-51 4l-49 -16 l-49 24l-51 -12h-76l-33 20l-24 11zM748 1307l16 59l45 8l45 -22l47 2l45 8l45 18l45 -12l45 12h45l45 -26l3 -39l-9 -51l2 -52l-8 -100l17 -51l-5 -51l-14 -41l-35 -6h-30l-35 28l-17 103l-41 16l-12 49l-41 19l-26 34l-41 15l-37 18l-41 -6l-35 16zM764 631l4 65l-2 58 l20 20l29 6l19 21l16 30l24 21l3 53l41 62l30 10l29 -8l22 -29l2 -29l-6 -26l11 -47l6 -47l-4 -50l-17 -47l10 -94l15 -49l-12 -47l-15 -37v-41l-39 -10l-24 20l-47 74l-13 25l-6 34l-16 33l-39 8l-17 31z" />
<glyph unicode="G" horiz-adv-x="1374" d="M82 578l24 84l-14 40l6 48l21 47l4 47l-17 49l17 45l18 41l6 61l37 45l47 37l17 58l74 96l57 22l49 35l59 2l43 43l52 19l36 8l39 2l-18 -70l35 -55l-25 -14l-43 -8l-31 -35l5 -45l-11 -39l-4 -49l19 -48l-17 -49l19 -49l-31 -49l6 -49l23 -49l4 -49l-33 -50l33 -49 l-33 -49l4 -49l-2 -49l23 -49l-7 -49l-12 -50l8 -47l-8 -49l21 -49l-19 -35l6 -41l23 -29l29 -24h18l14 -53l-10 -56l-29 -8l-26 2l-37 23l-39 2l-23 22l-40 27l-43 20l-39 25l-48 10l-18 49l-51 17l-31 35l-8 51l-39 47l-10 57l-39 49l-2 62l-27 55zM690 637l4 35l37 16h41 l33 10l47 -18l92 18l45 -14l47 25l92 -9h46l34 -10l19 -8l26 -4l11 -39l-4 -31l-23 -12l-14 -16l-21 -17l-12 -28l4 -27l-12 -49l24 -47l-8 -50l4 -49l-24 -49l10 -98l-8 -12l-78 -88l-80 -9l-43 -26l-49 -25l-62 -26l-67 10l-51 -10l-29 -3l18 109l35 35l19 22l2 33l18 35 l8 47v49l-22 49l2 50l22 49l-30 47l10 43l-33 28l-41 5l-27 24zM733 1337l21 54h24l68 -21l74 -10l51 -14l30 -21l41 -8l48 12l24 41l27 23l47 2l35 -43l-13 -27l15 -49v-96l-21 -99l13 -47l-19 -49l21 -49l-19 -43l-18 -23l-27 -10l-33 4l-22 35l-25 31l10 41l-20 45 l-31 41l-10 51l-35 59l-51 29l-25 39l-39 35l-51 2l-51 -4l-33 18z" />
<glyph unicode="H" horiz-adv-x="1644" d="M143 51l25 39l22 27l39 -8l13 38l14 82l-10 50l-6 47l20 94l4 49l-12 47l6 96l-8 47l14 48l8 47l-6 49l6 47l-30 47l12 47l-4 49l6 47v47l12 48l-20 49l-8 33l-13 32l-53 33l-8 31l6 26l18 29l39 -6l27 6l49 -14l49 14l52 -4l49 -10l49 14l51 -18l49 26l49 -22l49 10 l27 -4l35 2l27 -19l-5 -65l-20 -25h-37l-20 -32l6 -37l-15 -49l7 -48v-47l-11 -96l9 -47l-17 -47l19 -47l-7 -96v-48l-8 -47l4 -49l15 -47l-9 -47l-16 -49l8 -47l-2 -47l21 -47l-25 -50l8 -47l19 -35l18 -24l33 -8l20 -29l9 -33l-4 -30l-27 -17l-35 -6l-27 -8l-98 24 l-49 -34l-51 2l-49 20l-49 10l-52 -10l-49 -2l-49 10l-27 -14l-34 16l-35 4zM772 748l66 -5l55 11l53 -21l10 62l-12 49l14 49l-16 47l4 49l-4 49l-14 47l30 50l-4 49l-39 61l-26 25l-33 4l-6 39l12 28l19 29l39 2l24 -14l51 -8l49 4l50 -2l51 22l49 8l49 -16l51 6l49 -6 l50 2l26 -6l37 2l29 -18l16 -33l-18 -39l-31 -6l-33 -11l-12 -40l-18 -82l8 -48l-6 -47l18 -47l-14 -49l-4 -47l-9 -47l23 -47v-96l-29 -48l31 -47l-4 -49l6 -47l-4 -47l-16 -49l-11 -47v-47l29 -47l-23 -50l-8 -47l15 -39l32 -22l66 -25l12 -45l-20 -28l-25 -25l-37 -2 l-26 10l-99 -24l-51 12l-49 -10l-49 30l-101 -6l-49 2l-51 -24l-26 12l-35 8l-29 14l-8 33l22 29l15 31h35l24 32l10 37l-14 45l2 45l16 47l-6 46l8 45l-6 45l-12 45l-2 45l10 47l2 45l-57 -14l-55 14l-54 -12l11 67z" />
<glyph unicode="I" horiz-adv-x="901" d="M123 1313l12 30l29 11l61 6l49 18l52 -16l49 -6l49 16l51 -6l49 4l49 -14l52 4l49 -10l26 16l39 4l23 -29l10 -28l-14 -33l-21 -25h-37l-28 -32l14 -88l2 -48l-22 -47v-96l24 -47l-24 -47v-47l14 -49l-10 -47l20 -48l-31 -47l3 -49l12 -47l2 -47l-10 -49l-7 -47l21 -47 l-23 -144l27 -35l18 -34h35l23 -27l18 -33l-10 -35l-31 -14l-63 -2l-49 10l-52 -16l-49 12l-49 8l-51 -18l-49 10l-49 -20h-52l-49 16l-26 -2l-39 -8l-27 26l-8 33l14 35l23 23l67 32l-8 39l4 47l-16 50l18 47l11 47l-17 47l-4 49l2 47l-10 96l20 47l7 48l-13 47l8 49 l-12 47l12 47l-20 47l18 49l7 94l-25 48l27 49l-39 71l-70 13z" />
<glyph unicode="J" horiz-adv-x="1175" d="M41 340l4 41l25 31l26 26l23 39l45 8l35 19l39 28l81 -20l37 -16l35 -23l17 -37l10 -35l22 -28v-37l-22 -94l-49 -88l-41 -23h-37l18 -27l29 -8l20 -14l21 4l-17 -51l3 -55l-21 -5l-61 9l-47 26l-54 25l-47 31l-57 45l-6 71l-11 62l-14 55zM399 1311l27 30l35 9l39 24 l35 -18l49 24l49 -6l51 -2l49 -16l49 18l52 8l49 -16l51 -12l49 26l27 -20l32 -10h37l-6 -37l-10 -29l-19 -27l-30 -12l-39 -61l4 -49l16 -50l2 -49l-18 -49l18 -49l-24 -49l20 -49l-6 -49l-14 -50l22 -49l-24 -49l18 -49l2 -49l-16 -49v-50l20 -49l-20 -49l22 -61l-30 -51 l-11 -48l-41 -34l-28 -60l-45 -41l-58 -22l-61 -39l-57 -23l-62 2l-51 -10l-64 6l-24 8l-4 58v57l18 8l33 23l6 43l8 31l17 34l-15 95l9 47l-19 47l31 47l-27 47l8 47l-4 47l-8 49l12 47l-10 95l29 47v47l-29 47l21 47l-15 47l21 47l-25 49l10 91l-30 38l-41 5l-29 14z" />
<glyph unicode="K" horiz-adv-x="1585" d="M143 1352l37 8l35 14l27 -18l51 -6l49 20l49 -6l51 6l50 -4l49 14l49 -14l51 -10l49 18l27 -16h35l32 -10l4 -35l-10 -37l-30 -6l-58 -49l-16 -86v-48l26 -47l-14 -47l21 -49l-25 -47l-4 -47l16 -47l11 -49l-19 -47v-48l-10 -47l29 -49l-5 -47l-14 -96l-2 -47l16 -47 l5 -47v-50l-25 -47l41 -55l49 -41l27 -35l-15 -33l-30 -16l-35 6l-27 -6l-100 10l-98 -22l-50 26l-51 -12l-49 -16l-49 18l-51 4l-27 -18l-37 10l-18 25l-13 26l5 39l28 14l35 7l35 28l-8 41l2 47l-6 50l16 47l-10 47l2 47l12 49l-10 47l-23 47l29 49l6 47l-20 48l2 47 l12 49l-18 47l18 47l-25 47l21 49l-6 47l-11 47v48l21 49l-25 33l-14 36l-31 15l-30 8l-9 37zM762 557l6 51l-2 82l20 37l33 33l17 43l49 80l39 28l18 41l31 35l18 43l41 29l19 41l6 84l-25 33l-22 45l-47 -7l-19 25l2 39l4 22l19 21l30 4h103l51 -12l100 6l52 22l51 -26 l35 8l24 -18l17 -35l-19 -39l-27 -31l-49 -35l-61 -20l-31 -33l-33 -14l-24 -27l-25 -55l-57 -31l-21 -57l23 -39l-4 -53l29 -39l6 -47l37 -37l10 -47v-52l26 -39l60 -129l14 -94l35 -37l22 -41l13 -47l18 -43l10 -45l48 -57l30 -23l8 -20l19 -27l-4 -35l-31 -16l-43 10 l-45 2l-47 -16l-90 -8l-47 18l-90 -22l-48 18l-45 4l-92 -22l-43 6l-24 63l-4 33l30 25l31 10l16 14l7 21l-13 24l-39 39l-8 51l-2 52l-39 94l-22 45l-9 49z" />
<glyph unicode="L" horiz-adv-x="1191" d="M123 53l10 43l37 10l31 13l28 63l-12 47l-4 50l12 47l21 47l-21 47l-4 49l2 47l6 47l17 49l-21 47l4 48v47l9 49l-21 47l19 47l4 47l-17 49l13 47l-11 47l21 48l-19 49l9 39l-35 28l-62 23l-8 39l4 35l33 10l35 16h26l52 -26l49 12l49 -4l51 16l49 6l150 -28l49 16 l33 -10l43 2l24 -23l33 -24l-27 -39l-30 -17l-39 -14l-35 -22l-14 -43l4 -48l14 -47l-6 -47l-14 -47l18 -47l12 -47l-14 -47l-18 -47l14 -45l-14 -47v-48l30 -47l-18 -47l16 -47v-47l-18 -47l6 -47v-47l-8 -94l14 -48l10 -47l-10 -47l-2 -47l-16 -47l-39 8l-49 -20l-50 -4 l-49 22l-51 -20l-49 18l-49 -8l-49 20l-52 -28l-26 16h-35zM741 55l25 58l10 8l53 2l35 20l37 58l43 16l10 41l56 51l10 76l22 47l19 21l29 12l26 -4l23 -33v-94l-13 -49l4 -47l19 -48l-10 -47l12 -49v-47l-25 -47l-36 -2l-50 -14h-47l-49 32l-47 -20l-49 6l-49 10l-47 -2z " />
<glyph unicode="M" horiz-adv-x="1683" d="M109 51l10 21l49 34l12 25l23 27l30 22l19 62l-8 30l2 29l-8 47l26 47l-22 45l-6 47l6 48l-4 45l22 47l-18 47l12 45l4 47l-20 45v94l43 -39l-11 -51l39 -35l-12 -53l29 -86l28 -39l15 -49l2 -51l-27 -49l23 -52l-31 -49l20 -51l11 -43l-2 -59l59 -84l45 -13l41 -18 l4 -41l-22 -31l-62 -22l-49 14l-49 -10l-49 8l-52 12l-49 -22l-43 8zM111 1313l10 33l49 22l47 -6l94 18l47 -4l48 -14l47 10l92 -8l94 -4l16 -41l29 -43l21 -45l-7 -55l7 -50l63 -84l4 -51l27 -41l6 -51l20 -45l25 -43v37l8 43l2 47l19 41l26 41l10 90l15 -49l-4 -49 l-8 -47l16 -47l-12 -48l4 -47l-11 -47l-20 -43l2 -49l-8 -47l-29 -41l-6 -49l-31 -90l-20 -43l-6 -47l-21 -43l-4 -50l-18 -45l-13 -96l-10 -45l-24 -43l-11 -47l-57 4l-37 88v51l-18 45l-37 39l12 56l-31 41l-26 43l-6 49l-19 96l-39 39l-8 47l-14 47l-13 98l-38 39l-15 47 l-6 47l-14 48l-33 41l-12 47v51l-15 45l-24 96l-25 31l-33 14l-47 8l-22 27zM874 53l13 51l41 15l43 -6l22 39v38l21 48l-23 47l15 45l6 94l-4 47l8 47l-25 47l19 47l8 47l-14 48l-3 47l19 47l-33 47l17 47l4 47l-7 47l13 47l-15 47l-10 47l4 48v47l25 47l2 47l-19 47l54 -4 h49l49 16l51 -20l49 18l50 -28l49 16l51 -14l49 16l27 -2l65 -18l15 -33l-15 -41l-33 -6l-32 -11l-35 -32l-2 -39l6 -97l14 -47l-20 -47l24 -49l-22 -47l4 -47l-6 -47l18 -49l6 -47l-10 -48v-47l-14 -49l-6 -47l30 -96l-30 -47l10 -47v-47l14 -50l-18 -47l20 -35l15 -41 l39 7l26 -23l14 -37l-18 -28l-25 -17l-110 -8l-51 6l-49 -6l-50 12l-51 -20l-49 22l-49 -22l-51 -8l-49 30l-33 -16h-43l-27 31z" />
<glyph unicode="N" horiz-adv-x="1456" d="M123 1317l22 26l25 19l35 -4l51 18l47 -24l49 6h49l50 12l96 -4l49 4l98 -4l8 -51l25 -41l39 -35l16 -47l39 -33l31 -39l20 -43l7 -53l30 -37l19 -47l43 -31l18 -45l23 -43l12 -47l33 -39l20 -43l27 -41l35 -35l22 -45l72 -125l-6 -53l-13 -49l13 -49l-2 -49l-8 -49 l10 -50l14 -49l-12 -49l6 -49l-55 -8l-90 6l-48 -8l-45 2l-45 20l-32 25l-46 86l-12 49l-35 35l-26 41l-6 51l-31 39l-21 43l-38 33l-52 82l-55 82l-2 53l-25 41l-39 35l-4 53l-51 26l-6 52l-51 82l-23 43l-16 47l-43 30l-23 43l-8 52l-22 43l-45 53l-37 16h-43l-31 31z M139 49v21l8 24l29 19l35 10l14 33l21 28l35 78v39l-11 49l9 47l-15 47l17 48l-7 47l7 49l-19 47l21 47l-17 47l8 49l17 47l-4 47l2 48l-8 47v49l26 -41l33 -41l8 -55l43 -33l-29 -55l7 -50l28 -49l-16 -49l8 -49l-4 -49l2 -47l-12 -49l12 -50l-14 -49l14 -49l-2 -35l16 -30 l2 -29l11 -27l20 -24l17 -27l24 -18l35 -9l10 -26l15 -25l-11 -28l-28 -33l-47 18l-48 -14l-45 2l-92 -8l-45 24l-51 -16l-18 29zM969 1321l35 20l40 41l50 -28l51 2l51 -6l49 26l51 -26l45 4l25 -19l8 -24l-10 -27l-37 -41l-41 -12l-8 -29l-14 -18l-25 -19l-8 -28l-4 -43 l8 -37l6 -45l-16 -45l2 -45l-13 -138l17 -45l8 -47l-14 -45v-45l-23 45l-16 53l-70 78l-6 49l23 138l-17 47l-2 45l10 26l-4 27l-2 57l-31 31l-20 29l-88 39l-8 28z" />
<glyph unicode="O" horiz-adv-x="1404" d="M82 633l16 43l-6 41l14 39l-12 43l21 39l-2 59l37 49l-9 66l25 55l39 45l82 86l43 39l30 51l60 15l41 47l49 36l55 15l60 -21l30 13l-10 -54l14 -53l-22 -20l-31 -2l-4 -35l-14 -39l-10 -45l-27 -47l6 -47v-47l25 -48l-25 -47l23 -47l2 -47l-29 -47l10 -47l-2 -47l2 -47 l23 -47l-33 -48l6 -47l10 -47l4 -47l-20 -47l18 -94l7 -82l8 -31l20 -26l29 -13l43 -69l-16 -52l-31 11l-60 -15l-53 23l-61 6l-82 68l-25 36l-51 9l-51 71l-23 37l-39 29l-34 84l-15 96l-43 41l29 64l-14 57zM727 84l45 6l29 14l22 29l-6 37l25 29l-23 51v47l25 94l4 47 l-27 47l23 47l-4 48l-13 47l23 47l-23 47l2 47l-10 47l27 47l-6 47l10 95l-16 94l4 47l8 51l-43 35l-6 31l-27 12l-31 2l13 63l6 54l20 -9l56 2l51 -24l63 2l53 -33l80 -86l62 -24l12 -68l39 -43l37 -47l26 -53l31 -52l-2 -63l27 -53l-17 -45l9 -39l18 -41l-6 -41l-12 -41 l-9 -41l9 -59l-27 -56l8 -51l-33 -41l-6 -51l-20 -39l-13 -45l-43 -23l-22 -36l-27 -33l-67 -56l-31 -30l-39 -19l-53 -20l-55 -17l-48 -30l-55 -19h-31l-4 60z" />
<glyph unicode="P" horiz-adv-x="1394" d="M123 1313l14 30l27 17l37 -4l24 6l51 6l50 14l49 -8l51 -18l49 24l49 -8l49 -4l52 14l49 -16l8 -47l-10 -47l14 -47l-2 -47l-6 -48l-16 -47l18 -94l-8 -47l10 -47l-23 -47l17 -47l-10 -47l-2 -47l4 -48l-6 -47l10 -47l18 -47l-2 -47l-6 -47l-20 -47l2 -47l14 -45l8 -47 l-6 -48l12 -36l17 -37l69 -27l33 -37l-35 -24l-24 -37l-43 -4h-84l-50 24l-51 4l-49 -14l-49 -6l-51 16l-49 -16l-50 4l-51 10l-24 -12l-37 10l-25 17l-8 28l8 35l29 10l29 21l22 26l17 37l-23 47l25 50l-23 47l27 47l-25 47l-4 49l27 47l-29 47l20 49l13 47l-6 48l-27 47 l20 49v47l-4 47l-16 47l10 49l6 47l-14 47l27 48l2 49l-15 39l-34 16l-25 27l-31 10zM756 526l2 52l14 53l16 2l37 26l39 43l17 46l-23 43l19 45l-21 47l18 45l-14 92l10 45l-16 45v47l-33 84l-43 23l-22 -7l16 54l-8 55l16 -2l45 6l54 -29l57 25l45 -18l45 -23l57 6l47 -20 l31 -45l31 -37l25 -39l28 -31l21 -37l8 -39l31 -82v-47l8 -49l-31 -45l-6 -43l2 -45l-29 -41l-30 -37l-19 -51l-35 -37l-57 -8l-39 -43l-57 8l-90 -31l-52 9l-47 -33l-43 24z" />
<glyph unicode="Q" horiz-adv-x="1404" d="M82 637l2 82l25 41l-15 41l-10 43l37 53l12 57l19 56l2 63l39 47l30 51l58 29l20 66l49 32l45 39l64 9l51 32l55 8l56 -4l28 11l6 -54v-51l-28 -10l-23 -16l-16 -27l-10 -43l-31 -45l22 -47l-10 -47v-47l16 -48l-8 -47l-4 -47l6 -47l-10 -92l14 -47l-2 -47l-10 -47 l17 -47l-7 -48l-12 -47v-47l-4 -45l10 -47l-18 -47l31 -49l-9 -33l17 -29l22 -22l15 -31l30 -2l4 -55l-2 -53l-32 -19l-54 29l-104 47l-57 12l-29 35l-41 16l-66 56l-26 35l-45 75l-37 29l-6 47l-25 43l-18 45l-25 45l6 62l-12 57zM639 215l12 27l6 20l33 8l37 25l47 6 l37 -14l23 -17l10 49l-15 50l-6 49v47l25 49l-25 98l-6 99l4 49l10 49l-10 49l17 49l12 49l-29 99l-4 47l25 51l-11 29l-6 26l-16 37l-35 37l-39 -8l-12 63l12 56l33 2l55 -11l60 -2l47 -28l51 -15l45 -36l33 -50l59 -20l23 -57l49 -66l43 -25l-4 -47l37 -28l4 -43l26 -80 l-2 -43l6 -43l17 -43l-8 -45l14 -41l-27 -39l15 -41l6 -60l-12 -57l-33 -33l-8 -39l-13 -38l-6 -58l-49 -37l-22 -53l-37 -61l-31 -9l-23 -26l15 -23l26 -6l25 -12h53l49 14l35 6l19 -16l16 -25l-23 -36l-75 -56l-29 -8l-47 -8l-51 -27l-47 -2l-99 23l-28 47l-29 18l-25 -10 l-37 -25l-34 -8l-37 19l-23 -21l-4 64l-10 55l72 37l-15 12l-71 45z" />
<glyph unicode="R" horiz-adv-x="1509" d="M123 53l4 39l33 4l33 15l8 39l26 32l4 47l-12 50l-4 94l-12 47l28 49l-12 47l-2 47l4 49l-8 47l2 48l-2 47l12 49l-4 47l-8 47l8 47l12 49l-12 47l10 47l-24 48l10 49v37l-33 18l-30 10l-31 21l6 71l25 29l39 -16l26 14l49 -8l49 12l50 8l51 -24l49 -6l98 18l51 -12 l50 -2l-15 -35l11 -94l18 -47l-12 -48l6 -47l-8 -94l8 -47l-21 -47l17 -47l4 -47l-15 -47l19 -47l-23 -48l11 -47l16 -47l-18 -47v-47l-13 -47l17 -47l8 -47l2 -45l-21 -47l17 -48l-8 -45l36 -20l39 -10l25 -31l8 -29l-6 -26l-25 -31l-43 -2l-32 -6l-52 6l-49 16l-51 -20 l-49 14l-49 -8l-49 -4l-52 -10l-49 16l-49 10l-26 -6l-37 2l-29 17zM731 709l70 14l37 18l-4 45l10 29l4 31l18 45l-26 88l28 45l-20 43l6 45l-18 84l-31 37l-39 14h-25l9 64l-11 55l29 -4l55 14l58 6l37 -32l38 10l91 -31l53 8l30 -47l37 -22l31 -31l35 -20l20 -35l27 -64 l-2 -41l6 -39l19 -39l-21 -36l10 -41l-26 -31l-23 -33v-47l-29 -25l-36 -14l-41 -59l-78 -2l-39 -17l-53 -16l57 -4l37 -21l125 -35l65 -110l19 -37l33 -43l-29 -53l4 -51l27 -52l-21 -51l12 -18l9 -21l22 8l47 56l35 -27l18 -29l15 -53l-39 -31l-19 -43l-36 -14l-33 -16 l-47 -43l-51 -19l-72 11l-55 12l-56 -8l-59 6l-31 59l-35 43l-20 49l-17 54l-26 63l16 41l-4 43l-14 41l8 70l-8 26l10 29l-14 22l-6 29l-31 10l-23 13l-37 14l-4 57z" />
<glyph unicode="S" horiz-adv-x="1265" d="M129 983l27 43l2 45l12 43l20 39l27 37l14 39l31 28l27 35l43 15l35 34l51 5l37 18h45l37 33l45 -15l28 7l-10 -54l23 -57l-35 -8l-45 -19l-39 -24l-8 -49l-25 -41l37 -54l4 -67l55 -12l54 -27l81 -51h54l39 -27l65 -14l23 -47l49 -45l37 -13l55 -55l35 -27l26 -26 l23 -31l16 -43l-8 -49l33 -43l-19 -49l13 -45l-21 -43l6 -47l-8 -46l-63 -83l-8 -56l-58 -14l-26 -41l-37 -27l-103 -30l-75 -35l-37 -23l-74 10l10 54l-16 57l37 8l61 6l37 37l31 47l2 62l-10 49l-56 78l-43 20l-39 35l-71 10l-52 47l-96 41l-39 25l-143 80l-14 49l-35 27 l-21 39l-2 47l-24 39v102zM131 254l12 45l-12 45l14 47l-10 45l21 35l12 31l29 2l20 -10l21 -15l22 -33l-2 -40l18 -23l21 -57l12 -72l74 -27l33 -51l35 -39l34 -18l47 -31l23 -6v-49l12 -56l-37 -6l-43 2l-71 17l-33 45l-49 10l-33 -10l-33 -4l-37 -19l-14 -26l-27 2 l-20 14l-23 27l-10 43l2 47l-2 45l15 45zM694 1286l17 47l-13 56l19 -5l59 -2l49 -16l35 -29l58 -18l71 4l8 39l25 22l22 2l27 -6l25 -34l-9 -43l19 -95l-31 -94l2 -47l13 -47l-9 -47l6 -39l-20 -14l-29 -15l-26 10l-31 21v41l-12 31l-54 73l-26 43l-39 47l-19 62l-118 33z " />
<glyph unicode="T" horiz-adv-x="1325" d="M82 1274l12 45l-6 47l62 8l53 -20l53 6l51 18l53 -22l-4 -31l13 -41l2 -41l-21 -20l-39 -47l-39 -23l-26 -45l-25 -49l2 -47l-6 -62l-31 -35l-10 -20l-24 -12l-37 26l-27 43l12 47l-8 45l17 46l-9 47l6 45l-18 47zM326 14l2 41l10 35l27 25l41 10l38 20l-10 93l-8 47 l2 45l18 47l9 47l-27 47l6 94l-6 47l14 47l4 48l-16 47l10 47l6 47l-6 47l-10 47l16 47l-20 47l10 47l-6 47v95l10 47l-4 47l17 47l39 16l49 -10l51 2l49 -4h98l101 -14l49 16l10 -53l-14 -47v-47l-13 -47l31 -48l-20 -47l16 -47l-16 -47l16 -47l-27 -47l19 -94l-10 -47 l22 -47l-26 -48l24 -47l-12 -47l-6 -47l8 -47l-6 -47l-2 -47l22 -47l-16 -45l14 -95l-4 -40l25 -31l37 -23l45 6l-7 -47l9 -43l-41 -14l-76 -6l-51 14l-49 8l-52 -12l-49 -4l-49 -14l-51 8l-49 -8l-49 22l-52 6l-32 -22zM956 1243l9 41l12 41l-8 33l53 12h53l51 -22l54 16 l47 2l6 -47l-14 -45v-45l20 -47l-14 -45l16 -47l-6 -46l8 -45l-26 -92l-39 -22l-29 2l-27 10l-6 53v64l-47 88l-8 53l-25 41l-45 47h-35z" />
<glyph unicode="U" horiz-adv-x="1460" d="M109 1313l4 33l65 12l27 10l100 10l49 -16l49 -2l52 8l49 12l51 -2l49 -16l49 10l27 -10l39 12l26 -31l9 -30l-37 -58l-35 -4l-29 -30l-10 -37l-2 -47l14 -47v-48v-45v-47l13 -47l-6 -47l-3 -47l-22 -45l6 -47l12 -47l4 -92l-2 -48l-16 -47l16 -92l-18 -47l16 -43 l-10 -35l14 -49l5 -45l49 -27l24 -41l35 -4l4 -39l10 -45l2 -43l-45 2l-41 -4l-26 6l-68 -10l-53 23l-61 39l-62 28l-88 15l-61 41l-27 32l-18 35l-2 39l-9 35l-41 61l23 84v50l-4 49l-15 47l29 49l-4 49l-22 49l16 49l-16 50l2 49l10 49l-15 49l11 49l6 49l12 49l-12 50 l-4 49l-29 61l-29 21l-32 8zM852 61l8 43l17 -4l106 6l47 121l35 31l-2 55l33 45l-4 50l2 47l14 47v92l-29 47l31 47l-25 47l-2 47l17 47l8 48l-18 47l20 47l-8 47l-12 47l12 39l-27 29l8 43l-22 38l-41 15l-35 18l-35 23l-22 47l24 35l27 4l41 20h49l51 -12l49 12h50l51 4 l88 -24l12 -49l-41 -29l-24 -37l-33 -14l-23 -27l-28 -26l-15 -72l-14 -37l6 -47l2 -45l-10 -47l29 -47l-2 -48l-21 -45l14 -47l-20 -47l8 -47l12 -47l-6 -45l15 -47l-13 -47l-16 -47l16 -52l-20 -98l-29 -41l-31 -51l-8 -57l-57 -29l-39 -51l-31 -27l-41 -10l-57 -10 l-39 -2l4 34z" />
<glyph unicode="V" horiz-adv-x="1312" d="M68 1311l10 37l39 14l100 10l49 -8l51 12l50 -14l49 14l49 -20l49 2l49 6h49l54 -6l26 2l23 -17l6 -32l-14 -23l-19 -37l-33 -34l-30 -23l10 -33l8 -45l29 -41l-4 -51l39 -37l30 -90l8 -45l-4 -51l31 -39l-10 -53l18 -43l31 -41l-8 -52l14 -45l33 -39l-14 -53l41 -37 l-9 -51v-43l-16 -43l-25 -39l-10 -45l2 -47l-22 -41l-31 -86l-39 -22l-51 34l-53 -10l-54 6l-51 -2l-2 39l-37 90l-8 47l-39 88l-24 43l-5 50l3 51l-9 47l-41 39l-8 47l-2 49l-27 41l-6 98l-41 39l-16 45l-27 193l-28 41l-13 47l5 51l-35 39l-11 23l-22 12l-51 43zM846 1311 l33 24l16 37l43 -2l49 12l49 -24l49 16l50 -6l49 2l43 -6l22 -18l8 -68l-24 -16l-43 -39l-37 10l-18 -33l-27 -22v-41l-29 -27l-8 -31l-8 -94l-19 -45l-8 -45l-32 -39l8 -51l-8 -45l-15 -45l-33 -39l-2 -49l-28 -41l14 -51l-39 -39v45l-16 47l-23 94l15 45v51l30 41l-8 53 l14 46l25 45l18 94l5 49l10 20l6 25v35l-25 28l-57 52l-33 6z" />
<glyph unicode="W" horiz-adv-x="1771" d="M68 1284l4 27v30l37 25l24 4l29 -12l47 -6l92 18l47 -14l47 24l47 -22l47 -4l95 10l45 8l39 -12l45 -47l-19 -27l-43 -47l-26 -20l6 -21l-10 -24l18 -46l23 -43v-51l24 -41l-6 -51l43 -39v-49l16 -45l-4 -51l6 -47l27 -43l14 -45l9 -48l2 -49l12 -45l-10 -41l4 -53 l-8 -49l-27 -45l-12 -49l-17 -47l-12 -50l14 -55l-14 -47l-41 -41l-27 -4l-45 6l-43 -2l-43 2l-43 -6l4 49l-39 39v49l-16 43l-27 41l-6 47l15 54l-35 38l-6 48l-13 45l-26 41v49l-6 47l-15 45l-20 41l6 51l-29 41l-2 47l-18 45l-12 45l-27 41l-10 45l6 51l-31 41l-14 43 l-2 50l2 34l-13 23l-61 16zM791 829l6 52l18 45l10 49l15 49l-15 53l39 43v51l-4 54l35 43l-6 53l29 43l98 -12l51 22l53 -16l10 -39l5 -47l26 -41l-8 -51l31 -41l10 -45l-2 -50l37 -38l-10 -52l20 -45l14 -43l25 -43l-16 -53l26 -41l23 -43l-8 -51l8 -47l16 -43l12 -45 l37 -41l-22 -49l-15 -45l2 -50l-30 -41l-21 -43l15 -53l-39 -37l12 -53l-27 -41l-10 -47l-39 8l-43 -20l-45 18l-43 -14l-43 2l-8 53l-23 45l-14 45l6 51l-8 48l-41 38l18 54l-45 39l-10 47l15 53l-37 88l-9 49l-16 43l-10 47l-25 43l10 54zM1311 1278l6 76l45 18l45 2 l47 -16l47 -8l47 22l45 -18h47l29 -6l35 -29l-16 -37l-29 -18l-47 -9l-13 -30l-51 -35l-22 -66l-4 -30l-39 -93l-8 -47l-17 -47v-51l4 -53l-30 -43l-23 -45l4 -51l-22 -48l-7 105l-41 43l-12 51l43 49l-22 58l37 43l-5 53l37 45l13 47l-21 57l17 41l-35 27l-39 25z" />
<glyph unicode="X" horiz-adv-x="1339" d="M61 1286v29l13 22l53 29l35 8l47 -4h47l45 -8h47l47 16l47 -22l45 -4l48 18l47 6h47l35 -24l45 4l10 -45l-8 -27l-23 -18l-10 -27l-8 -12l6 -35l33 -37l6 -49l24 -41l9 -49l38 -35l-4 -53l43 -33v-53l43 -33l15 -45l10 -47l61 -76l21 -43l-2 -53l22 -43l43 -33l25 -39 l-2 -55l43 -31l12 -47l4 -51l47 -29l-2 -55l29 -27l31 -18l37 -37l16 -29l-18 -24l-29 -21l-25 -8l-26 2l-47 -2l-48 -12l-47 24l-47 -12l-47 12l-47 -18l-47 16l-47 -8l-47 14l-47 -16l-45 6l-64 41l2 39l74 41l-19 33v18l9 31l-35 37l-23 43l-16 45l-33 37l-6 51l-37 35 l-35 90l-8 49l-43 33l-6 51l-39 33l-18 45l-15 47l-51 82l-10 47l-35 37l-14 47l-29 39l-2 53l-27 39l-37 37l-2 41l-30 16l-39 16zM70 55l20 33l43 10l35 43l47 23l25 41l36 35l25 41l10 51l49 26l11 50l26 43l17 45l32 -45l19 -37l4 -45l-29 -39l-24 -56l-35 -47l8 -47 l-8 -30l29 -9l24 -35l39 -16l10 -70l-37 -16l-40 10l-54 -2l-51 -24l-51 6l-51 18l-52 6l-30 -4l-35 6zM801 1317l35 39h32l99 18l47 -24l49 6l47 24l49 -18l49 -2l25 -39l-29 -29l-12 -16l-35 -10l-80 -58l-24 -71l-41 -29l-11 -45l-26 -37l-21 -41l-24 -39l-29 -35l-33 35 l-16 37l-12 41l32 47l23 51l20 21l-8 28l4 29l-16 19l-33 24l-43 45z" />
<glyph unicode="Y" horiz-adv-x="1294" d="M47 1272l14 74l23 26l39 -6l49 8l49 -12l49 -4l99 20l49 -14l49 12l49 -12l49 16l49 -24l39 18l21 -33l26 -26l-30 -58l-29 -20l-18 -18v-21l24 -29l10 -47l-2 -53l27 -41l16 -47l27 -41l16 -47l25 -43l18 -45l29 -41l2 -51l27 -43l22 -43l-14 -49l22 -48l9 -49l-11 -49 l-16 -49l25 -47l-31 -49l29 -49l-5 -48l5 -38l20 -43l43 6l39 -13l12 -47l-14 -37l-39 -4l-39 -16l-33 -10l-51 10l-49 14h-51l-49 -12l-285 6l-41 -8l-33 25l-22 30l14 51l39 19l39 6l39 16l4 45l-10 48l-7 49l19 49l-10 47l2 49l-4 47l-11 49l7 50l-33 38v54l-29 41 l-20 43l-9 51l-30 39l-9 49l-40 35l-11 49l-45 86l-16 47l-6 51l-39 35l-4 21l-9 22l-22 14zM838 850l14 55l25 45l18 49l41 39l4 54l21 32l12 45l-31 35l-14 33l-27 23l-35 14l-24 35l14 22l14 10l31 9l137 4l49 6l50 10h49l37 -20l14 -13l2 -34l8 -17l-12 -16l-23 -21 l-34 -4l-29 -28l-45 -27l-23 -47l-32 -47l-2 -54l-35 -41l-2 -53l-37 -39l-25 -43l6 -59l-32 -39l-31 -43l-14 37l-27 41z" />
<glyph unicode="Z" horiz-adv-x="1167" d="M82 -14l4 63l8 51l-4 47l43 33l8 49l27 41l20 43l-4 54l19 45l67 73l11 47l4 52l12 45l33 39l18 43l31 39l43 86l16 45l2 51l37 35l-8 55l37 37l6 49l25 41l18 45l25 41l18 43l23 43l16 45l49 -4l47 12l49 2l49 -12h97l47 10l49 8l47 -10v-63l-8 -58l-25 -37l-4 -49 l-28 -39l-11 -47l-6 -49l-37 -35l-16 -45l-23 -41l-18 -45l-10 -45l-25 -43l-29 -90l-28 -39l-45 -82l-10 -47l-5 -49l-45 -33l-20 -43l-14 -45l-23 -41l-31 -90l-6 -47l-16 -45l-35 -37l-29 -39l-10 -47l-43 -6l-49 12l-96 -20l-50 12l-49 16l-47 -32l-49 28zM100 1366 l64 10l49 -10l47 6l49 2l47 -14l50 -10l49 24l47 -10h49l-35 -74l-14 -39l-17 -4l-131 -59l-37 -33l-79 -106l-33 -68l-10 -31l-29 4l-19 9l-18 14l-6 84l-14 51l24 51l-14 49l10 52v51zM604 4l29 102l39 -4l63 11l41 22l45 17l41 34l39 52l35 36l6 33l31 60l8 24l6 33 l31 -8l29 6l14 -25v-35l20 -45l-10 -45l-12 -90l26 -47l-20 -90l4 -45l-43 4l-47 -16l-47 22l-47 -12l-47 8l-95 -16l-45 8l-47 18z" />
<glyph unicode="[" horiz-adv-x="600" d="M82 229l20 50l-12 47l-2 47l4 49l14 47l-12 47v47l8 96l-14 97v47l25 47l-4 47l2 49l-15 47l-6 47l14 97l5 47l-15 49v47l-6 47l-2 47l18 49l-12 47l6 37l52 17l51 -17l51 21l49 -17l51 11l51 6l60 -25l26 -16l17 -37l-21 -45l-20 -29l-35 -4l-39 -41l12 -53l-10 -47 l19 -96l-19 -48l19 -47l2 -49l-21 -47l15 -47l-21 -47l6 -47l19 -49l-25 -47l23 -48l4 -47l-6 -49l-21 -47l29 -47l-29 -47l23 -47l-19 -49l8 -47l-2 -48l-6 -47l19 -49l-19 -47l10 -47l-14 -47l10 -49l19 -47l-21 -48l25 -47l10 -45l53 -37l35 -43l-22 -40l-29 -29l-37 2 l-27 14l-51 -2l-51 2l-49 -26l-51 2l-51 -7l-37 15l-29 49l20 47l-22 47l16 49l-14 47l16 48l-10 47l-4 49l10 47l-8 47v49z" />
<glyph unicode="]" horiz-adv-x="583" d="M82 -322l27 39l12 37h37l37 96l-19 48l-6 47l18 49l-16 47l25 47l-21 47l-10 49l22 95l-18 47l23 96l-5 47l-8 47l6 47l-2 49l-6 47l-12 48l20 47l-20 96l16 47l-10 47l-4 47l14 49l-6 47l4 48l-12 47l29 49v47l-23 47l-22 37l-27 24l-35 11l-8 53l10 39l27 27l37 -7 l26 17l51 2l52 -2l49 -13l51 -6l51 -2l51 27l15 -62l-17 -47l-12 -49l10 -47l-6 -47v-47l25 -49l-25 -47l23 -47l-15 -50l2 -47l13 -47l-8 -49l6 -47l-17 -47l11 -47l6 -49l-4 -48l-19 -47l17 -49l4 -47l-11 -47l-4 -47l13 -49l-17 -47v-97l15 -47l-19 -47l10 -49l-6 -47 l21 -47l-17 -49l-2 -47l10 -48l-10 -47l-2 -49v-94l15 -49l-56 -10l-51 20l-51 -2l-49 -16l-52 22l-51 -2l-26 -8l-39 -6l-21 33z" />
<glyph unicode="^" horiz-adv-x="1105" d="M164 922l307 444h164l307 -444h-190l-199 292l-199 -292h-190z" />
<glyph unicode="_" horiz-adv-x="1241" d="M0 -2h1241v-166h-1241v166z" />
<glyph unicode="`" horiz-adv-x="473" d="M68 1759l16 29l8 41l160 -21l43 -12l31 -37l26 -43l10 -90l25 -39l-14 -49l6 -43l24 -49l-41 22l-45 -14l-24 37l-39 25l-27 34l-34 29l-13 49l-30 31l-31 24l-27 13l-20 33z" />
<glyph unicode="{" d="M82 637l37 37l22 35h41l31 28l35 8l24 19l21 49l-10 27v94l-9 53l-32 45l18 47l-29 66l37 57l-16 62l39 47l-8 63l51 33l59 33l37 53l45 20l47 17l51 -27l50 25l32 -19l33 -28l-24 -37l-19 -21l-29 -24l-43 -19l-14 -18l-10 -70v-55l31 -55v-86l24 -49l-6 -41l14 -37 l-4 -66l4 -59l-26 -49l-49 -41l-60 -27l-98 -51l-43 -41l-55 20l-15 -16l-16 -12l16 -4l99 6l65 -62l33 -18l33 -23l39 -14l18 -35l6 -43l37 -26l6 -46l19 -38l20 -66l-6 -59l-19 -45l-6 -45l-35 -64l-2 -70l-18 -36l12 -45l-12 -56l27 -61l-2 -37l65 -16l37 -46l14 -30 l-69 -43l-47 2l-45 12l-48 6l-41 29l-65 18l-33 49l-53 35l-25 51l-6 70l-12 37l-8 37l-2 61l34 62l-10 30l4 66l-4 59l17 56l26 67l-16 27l-6 53l-25 45l2 33l-92 29l-37 18l-24 16z" />
<glyph unicode="}" d="M82 -352l24 59l23 29l96 33l-10 67v101l8 45l-53 55l-20 162l6 57l2 68l14 41l8 45l19 36l41 21l16 35l20 30l31 29l35 19l39 12l45 -25l88 51l10 9l-14 8l-12 14l-54 -10l-49 4l-43 33l-76 14l-24 72l-37 47l-43 37l-29 55l31 68l-12 41l31 32l-17 58l17 41v43l10 59 l26 49l-2 70l-6 35l-55 16l-35 4l-14 27l-6 35l12 32l35 -2h96l45 -16l113 -18l30 -70l54 -29l22 -55v-59l27 -58l-19 -59l-2 -66l-22 -92l-6 -53v-57l-4 -37l12 -49l20 -56l39 -6l33 -22l37 -17h49l14 -92l-30 -23l-17 -28h-43l-55 -37l-37 2l-2 -33l-29 -100l4 -25l5 -69 l14 -58l22 -55l-20 -68l12 -28l-16 -64l8 -59l-4 -37l12 -39l-12 -67l-39 -46l-16 -61l-45 -43l-70 -18l-49 -7l-41 -32l-49 -4l-47 16l-39 2z" />
<glyph unicode="~" horiz-adv-x="1024" d="M156 449q43 78 94 119.5t121 41.5q43 0 82 -13t72.5 -28.5t64 -28t57.5 -12.5q45 0 68.5 29t46.5 78l106 -113q-45 -80 -99 -121t-126 -41q-43 0 -81 12.5t-71.5 27t-62.5 26.5t-53 12q-41 0 -66.5 -29.5t-48.5 -78.5z" />
<glyph unicode="&#xa1;" horiz-adv-x="800" d="M178 -236l12 68l3 68l36 61l11 41l-2 47l10 41l69 107l5 59l30 49l-20 66l14 37l4 59l12 35l19 26l35 7l18 -25l39 -21l-14 -34l20 -52l2 -59l-6 -43l19 -35l20 -102l23 -35l22 -59l12 -43l2 -45l29 -52l-14 -67l35 -60l-31 -53l-45 -100l-39 -37l-53 -12l-54 -17 l-129 19l-45 108zM209 739l31 56l-21 53l21 51l32 43l47 27l52 12l51 6l53 2l45 -33l47 -26l23 -49l4 -52l18 -102l-28 -43l-37 -37l-31 -49l-57 4l-51 -4l-46 16h-55l-28 43l-23 45z" />
<glyph unicode="&#xa2;" horiz-adv-x="1241" d="M211 596l10 96l-2 47l27 47l-13 60l37 37l4 51l27 35l37 22l31 37l24 45l58 2l28 51l47 -8l35 25l41 14l76 12l4 -61l-25 -41l-30 -41l10 -53l-25 -43l-12 -45l-8 -47l-29 -41l-8 -47l-23 -43v-52l-32 -39l-15 -45l-6 -47l-18 -45l-12 -47l-7 -47l-22 -92l-33 16l-70 56 l-18 51l-43 90l-18 45zM377 -12l24 39l-8 53l27 43l8 47l12 47l37 39l15 47l2 49l20 94l29 43l12 97l27 43l16 45l4 49l25 43l2 49l18 45l33 41l14 45l-12 55l23 43l30 93l33 41l2 49l35 141l47 -8h39l-25 -37l-2 -49l-10 -47l-47 -88l8 -54l-31 -41l-18 -43l-6 -49l-19 -45 l-6 -100l-22 -43l-27 -41l-39 -90l-6 -47l-18 -45l-5 -49l-18 -46v-51l-22 -43l-31 -41l-10 -47l-19 -45l4 -51l-24 -94l-29 -41l-14 -47l-35 4zM602 227l27 56l-2 51h35l45 -4l69 41l47 12l33 33l10 37l60 36l24 -10l21 -20l-6 -51l-27 -41l-43 -29l-25 -29l-43 -2l-20 -35 l-31 -20l-41 4l-37 -6l-57 2zM793 827l12 45l18 50l2 51l11 51l20 47l35 43l35 -20l49 -21l22 -53l29 -39l2 -47l-29 -45l-10 -49l-28 -37l-52 4l-92 -10z" />
<glyph unicode="&#xa3;" horiz-adv-x="1275" d="M82 782l63 -4l105 19l-17 22l19 74l-33 55l21 45l-9 47l15 43l28 39l21 45l12 52l41 26l27 37l45 23l37 34l57 -2l39 49l57 -20l49 4l52 27l55 8l98 -12l45 -2l43 -9l45 -39l43 -28l64 -2l29 -51l32 -35l43 -33l-14 -55l27 -39l-2 -37l-21 -33v-37l-20 -32l-62 -11 l-51 -47l-61 15l-37 45l-37 32v56l-23 47l19 43l32 8l13 27l22 22l-12 31l-27 28l-45 27h-45l-43 6l-41 -4l-35 -10l-26 -25l-27 -30l-43 -62l-12 -37l-4 -37l20 -38l-14 -101l45 -63v-37l6 -37l-4 -27l45 -12l43 6l45 -2l45 23l45 -17l43 17l45 -27l9 -39l-19 -51l-35 12 l-43 -24l-45 4l-45 12l-45 -18l-43 20l-47 8v-28l-22 -54l24 -61l-24 -57l-48 -31l-18 -53l-43 -21l-37 -24l-57 -31l-47 -2l-41 -19l-41 -14l-82 -39l20 33l29 100l33 101l-17 47l-30 51l20 63l-22 15v22l-50 2l-45 -16l-92 24l10 35zM96 123l13 35l32 10l88 55l52 13 l47 28l61 -8l39 16l37 25l72 -8l100 37h47l43 -19l45 -2l49 -12l41 -4l8 -13l60 -26l45 -17l35 -16l45 -8l20 31l70 55l22 -16l2 -35l15 -68l-29 -63l-45 -50l-63 -38l-117 -66l-64 2l-61 -41l-60 19l-65 8l-66 12l-51 49l-39 31l-55 -6l-41 26l-33 41l-69 -18l-31 41 l-29 -21l-28 2l-99 -18l-28 8z" />
<glyph unicode="&#xa5;" horiz-adv-x="1302" d="M47 1313l8 33l23 22l39 10l49 -12l49 10l49 -22l49 26l49 -20l50 8l49 -6l49 8l49 -4l49 12l37 -16l27 -16l24 -31l-8 -39l-29 -10l-26 -25l-19 -22l7 -21l4 -33l16 -47l27 -41l30 -41l-6 -55l21 -45l43 -35l20 -43l17 -47l20 -43l-6 -57l16 -45l43 -35l43 -19l52 29 l51 -12l51 4l14 -62l-26 -53l-39 -16l-51 26l-52 -18l-51 4l10 -43l-14 -141l-10 -47l18 -47l10 -84l25 -23l35 -27h41l18 -49l-14 -39h-45l-39 -24l-33 18l-51 -16l-49 10l-51 -6l-50 18l-51 -16l-49 -12l-49 28l-51 -14l-49 -10l-35 4h-43l-29 29l-8 32l12 33l68 27l18 37 l25 38l-4 46l-15 47l21 47l-23 94l-2 47l23 47l-60 -10l-51 -2l-51 24l-51 -4l16 45l-20 56l59 -19l55 29l54 4l-31 25l-19 45l-8 49l-14 45l-27 41l-14 47l-23 43l-14 45l-22 43l-2 51l-43 35v51l-27 41l-8 19l-17 18l-16 25l-29 22zM834 1276l6 61l20 13l27 22l45 -18 l51 6l49 12l49 -16l49 -6l50 10l47 6l26 -55l-18 -47h-35l-26 -23l-35 -18l-25 -45l-35 -37l-2 -60l-24 -45l-21 -47l-41 -35l-24 -45l-39 -92v-55l-25 -45l-35 45l-2 51l-22 43l28 37l19 49v55l39 41l18 47l-4 41l19 43l-19 39l-24 25l-27 16l-39 13z" />
<glyph unicode="&#xa8;" horiz-adv-x="833" d="M76 1534l14 61l2 58l78 82l55 -6l41 20l31 -29l86 -59l-6 -66l6 -63l-47 -43l-60 -12l-51 -43l-53 32l-41 35zM457 1661l41 47l47 43h63l41 -4l31 -27l33 -20l45 -105l-21 -51l-28 -47l-47 -29l-54 -8h-55l-45 35l-16 53l-27 47z" />
<glyph unicode="&#xa9;" horiz-adv-x="1693" d="M109 760v43l8 41l22 39v86l39 41l8 53l19 49l18 39l68 55l26 31l31 29l23 39l47 8l35 22l30 35l47 2l31 39l45 8l62 -10l49 49l41 -4l41 -18l80 14l41 2l38 -6l54 -29l53 -20l43 -8h47l43 -17l37 -24l39 -19l29 -31l36 -22l31 -29l33 -45l43 -37l16 -53l47 -37l-2 -61 l39 -43l15 -58l-7 -61l19 -43l8 -45l2 -47l-4 -45l-16 -45v-45l-21 -56l-8 -57l-23 -49l-16 -53l-31 -45l-24 -50l-43 -32l-23 -54l-47 -12l-33 -27l-26 -32l-43 -13l-39 -18l-35 -25l-41 -16l-43 -8l-53 -25l-96 -8l-39 -20l-41 -7l-39 23h-39l-41 -6l-55 14l-54 23l-43 8 l-37 26l-51 -6l-26 43l-41 13l-29 32l-61 58l-46 14l-24 35l-12 43l-39 84l-43 39l-25 47l4 45l-14 39l8 45l-14 39l4 43l-2 41zM197 612l34 -49l29 -94l19 -39l14 -43l37 -35l14 -49l39 -31l29 -43l53 -8l31 -43l43 -26l51 -13l51 -4l43 -29l49 -14l51 -10l54 -6l51 22 l53 -12l45 29l55 -6l45 26l39 37l56 2l30 45l72 60l27 38l32 33l23 39l31 37l35 35l12 47l8 49l18 49l3 60l-5 59l-20 55l-4 58l-37 190l-29 37l-16 47l-72 64l-43 22l-33 37l-40 27l-37 34h-56l-49 15l-41 35l-53 -17l-49 29l-103 -15h-53l-45 -20l-49 -2l-49 -10l-47 -19 l-37 -37l-43 -24l-35 -33l-53 -14l-29 -41l-16 -47l-43 -29l-4 -51l-43 -29l6 -51l-35 -102v-56zM434 750l17 41l-5 43l29 75l17 35l10 37l35 20l6 48l28 32l50 6l69 52l37 22l37 13l37 6h24l9 -45l-13 -39l-14 -4l-21 -33l-36 -15l-2 -36l4 -25l-9 -49l-2 -49l23 -49 l-16 -50l18 -49l-18 -47l4 -49l-9 -49l7 -49l12 -49v-50l-6 -26l2 -37l22 -25l27 -20l18 -6l-8 -78l-14 -6l-131 67l-47 -14l-35 25l-31 28l-37 27l-8 43l-41 76l-2 45l-6 39l-27 36l15 44l-15 43zM868 293l11 39l82 -4l26 32l21 19l18 29l12 34l25 19l20 51l13 8l18 -4 l23 19l14 -19l-16 -24l22 -31l-20 -31l-23 -27l-16 -51l-45 -24l-33 -27l-47 -8l-35 -41l-33 -2l-26 12zM877 1090v45l4 39l69 -21l54 -4l24 -16l27 2l20 8l21 28l16 -2l16 2l19 -8l4 -30l-12 -46l-6 -45l24 -43l-10 -45v-45l-14 -45l4 -26l-13 -13l-37 -12l-30 86l-17 27 l-4 39l-59 55l-14 31l-70 34z" />
<glyph unicode="&#xab;" horiz-adv-x="1181" d="M178 709l17 20l8 51l28 39l52 23l14 47l31 37l14 47l41 28l16 48l43 38l43 -18l33 -45l51 -20l11 -19l26 -18l-8 -19l-23 -26l-24 -23l-27 -33l-22 -57l-33 -31l-70 -45l-6 -41l13 -6l-3 -24l37 -23l15 -43l47 -27l98 -159l-12 -21l-15 -12l-24 -15l-25 -45l-47 -12 l-16 -16l-19 12h-14l-27 27l-16 47l-61 71l-37 31l-21 43l-39 29l-28 39l-17 45zM578 682l6 61l49 25l6 53l49 23l21 43l32 35l7 53l22 43l27 37l32 32l23 11l22 -11l11 -28l98 -51l8 -21l8 -37l-2 -37l-18 -28l-55 -11l-15 -63l-45 -18l-33 -35l-2 -39l-28 -4l2 -23l-2 -16 l8 -17l25 -32l20 -37l41 -35l20 -49l52 -43l32 -19l-4 -32l11 -27l-17 -16l-61 -41l-37 -29l-25 6l-14 -4h-18l-31 21l-29 36l-14 48l-29 38l-61 72l-35 33l-27 39l-6 51z" />
<glyph unicode="&#xae;" horiz-adv-x="1497" d="M0 674l4 43l29 43l12 41l-14 43l20 39l-20 47l14 39l21 35l4 40l28 31l39 72l33 29l14 43l31 30l35 27l47 6l18 49l37 23l37 26h49l39 19l37 24l74 27l45 -25l35 33l41 -2l79 -16l43 18l35 -37l45 29l33 -27l35 -18l43 -8l39 -21l35 -30l51 6l20 -49l39 -15l49 -6l21 -41 l14 -43l56 -6l4 -49l24 -31l21 -35l14 -39l33 -30l-12 -47l34 -31l-16 -43l35 -33v-47l-19 -45l33 -45l-10 -45l-23 -43l-10 -45l29 -43l-10 -39l-43 -29l12 -47l-62 -61l9 -54l-50 -14l-12 -41l-31 -27l-8 -47l-43 -18l-69 -47l-43 -8l-25 -48l-47 -2l-33 -39l-43 -12 l-37 -14l-41 10h-39l-37 -33l-40 13l-41 16l-78 8l-41 -10h-39l-33 29l-45 -19l-35 31l-49 -4l-35 33l-41 16l-43 12l-14 54l-29 30l-35 23l-51 10l-26 33l-25 37l-4 47l-10 39l-43 20l-4 43l-27 76l-16 39v43l-17 41zM113 608l28 -33v-36l15 -33l12 -43l22 -39l13 -45 l26 -27l7 -39l28 -24l25 -29l41 -10l10 -43l45 -2l27 -25l63 -43l78 -8l39 -43l53 4l37 10l33 -2l35 -20l34 8l33 12l37 -10l43 37l53 -8l33 22l35 11l33 20l45 -4l55 49l35 16l22 31l39 29l25 41l6 53l25 39l14 43l41 35l22 47l13 51l-9 41l-12 39l-8 39l18 39l15 41 l-13 39l-6 51l-16 49l-27 41l-18 43l-25 41l-45 24l-20 41l-33 33l-23 29l-26 22l-25 29l-33 14l-26 35l-45 -10l-27 37l-39 8l-43 31l-55 -17l-33 11l-69 10l-35 -27l-35 23l-35 -6l-92 -39l-41 2l-41 -2l-20 -43l-37 -13l-31 -18l-25 -29l-32 -14l-64 -43l-16 -33l-8 -39 l-21 -28l-35 -33l-14 -43l-37 -35l8 -41l-20 -33l20 -39l-8 -36l6 -35l-16 -37l14 -35l-16 -39zM356 311l2 31l21 10l27 -8l16 51l-8 41l24 41l-2 41l-33 41l-2 39l15 41l8 41l-6 41l-12 41l34 41l-2 41l-35 39l31 41l-10 41l-16 41l16 41l2 26l-29 4l-28 33l-4 20l4 15 l14 10l39 14l41 2l41 -26l43 12l41 -14l82 22l43 -12l2 -29l8 -41l-18 -39l-13 -40l19 -41l4 -39l-8 -41l2 -41l-13 -39l17 -41l10 -39l-10 -41l-15 -41l29 -39l-29 -41v-41l7 -80l-9 -41l15 -28l26 -13l27 2l16 -24l4 -23v-24l-49 -21l-22 8l-125 15l-41 -31l-43 -4l-41 41 l-41 -4l-19 -21l-24 -2l-19 19zM745 737l29 19l29 -21l6 35l18 16l11 41v43l12 43l2 43l-33 43l10 35l2 27l-36 4l-15 31h-16l8 32v37l6 4l37 -4l35 -18l51 22l33 -2l53 -41l33 -2l53 -26l2 -64l25 -33l12 -98l-10 -47l-17 -49l-24 -47l-57 8l-60 -45l-37 -2l37 -8h27 l35 -35l43 -2l34 -29l27 -31l14 -28l-6 -33l10 -45l-28 -45l28 -45l-6 -12l6 -9l9 7l8 12l26 18l37 -2l-6 -33l12 -32l-20 -64l-61 -6l-29 -31l-35 -4l-45 -24l-39 18l-31 25l-32 4l-33 18l-25 68l-41 28l27 80l-23 74l15 37l-33 26l-6 33l-31 4l-10 15l10 32z" />
<glyph unicode="&#xb0;" horiz-adv-x="755" d="M68 1016l6 49l2 47l14 47l29 37l14 45l76 53l31 39l43 21h47l94 14l45 -18l47 -9l27 -47l51 -12l12 -49l35 -33l29 -39l-2 -49l20 -47l-8 -47l-39 -88l-27 -39l-36 -29l-27 -37l-39 -24l-39 -35l-51 16l-45 -20l-51 -10l-41 30l-49 6l-43 23l-23 49l-35 29l-31 39l-22 41 zM207 1065l45 -51l10 -64l64 -6l51 -47l53 39l57 16l27 56l8 118l-49 35l-37 51l-119 -6l-45 -37l-43 -43z" />
<glyph unicode="&#xb4;" horiz-adv-x="471" d="M68 1456l30 82l4 45l19 41l-10 47l4 45l43 37l20 39l37 37l41 -21l57 13l62 -4l10 -31l18 -27l-8 -28l-26 -27l-7 -29l-26 -30l-33 -29l-31 -33l-36 -24l-52 -74l-45 -19l-30 -6z" />
<glyph unicode="&#xb6;" horiz-adv-x="1175" d="M109 956q0 94 44 181.5t115 138.5q76 53 190.5 71.5t276.5 18.5h352v-113h-141v-1587h-135v1587h-162v-1587h-135v854q-406 41 -405 436z" />
<glyph unicode="&#xbb;" horiz-adv-x="1187" d="M178 446l23 27l35 57l32 41l43 31l19 39l39 21l16 12l-6 37l-17 14l-75 98l-33 47l-61 50l-11 30l2 15l15 18l4 21l30 47l52 22l20 23l27 4l16 -25l14 -35l37 -32l15 -47l69 -68l27 -39l22 -41l17 -45l37 -35l12 -24l2 -27l-27 -94l-34 -33l-23 -41l-39 -31l-22 -41 l-19 -45l-43 -28l-24 -39l-17 -33l-20 -12l-84 30l-37 27l-12 33l-19 12l4 25zM582 946l4 21l22 16l8 14l37 41l31 47l31 7l24 -5l21 -8l47 -71l55 -78l33 -35l8 -51l45 -27l25 -39l10 -53l27 -16l-9 -27l9 -53l-31 -39l-43 -27l-23 -41l-34 -33l-23 -43l-18 -43l-41 -28 l-4 -56l-52 -34l-20 2l-14 20l-35 31l-51 4l-13 33l-12 16v21l-6 34l28 23l46 47l41 33l18 51l55 64l6 18l13 6l-19 43l-30 17l-37 28l-27 35l-72 74l-6 37z" />
<glyph unicode="&#xbf;" horiz-adv-x="1210" d="M178 -57l10 45l19 43l2 47l24 41l13 43l6 49l43 22l18 39l45 13l68 59l43 18l33 21l39 8l41 -4l39 2l67 29l6 20l-10 29l16 39l15 16l30 -10l19 2l27 -12l-3 -33l-8 -51l4 -49l23 -52l-23 -49l-4 -51l31 -49l-29 -51l15 -31l-21 -14l-45 -4l-65 8l-54 -29l-57 -45 l-43 -51l2 -68l-25 -33l15 -34l-8 -43l20 -33v-31l27 -12l10 -23l-14 -53l32 -55l-47 6l-39 14h-47l-35 29l-41 18l-28 39l-41 21l-31 35l-16 41l-23 41l-14 43l-19 43zM514 733l21 55l12 97l24 47l39 41l60 -8l49 26l47 -20l47 -17l31 -39l55 -77l21 -50l-29 -49l4 -55 l-53 -22l-31 -39l-47 -15l-45 -20l-57 -4l-48 28l-82 70zM625 -383l12 55l20 13l23 6l8 51l-10 22v31l-16 31l30 57l27 58l65 16h64l57 -4l51 -23l31 -22l25 -33l22 -74l-30 -47l-17 -37l-35 -61l-26 -29l-35 -18l-57 -17l-52 -36l-114 22l-25 -24z" />
<glyph unicode="&#xc0;" horiz-adv-x="1357" d="M41 57l12 27l31 22l33 31h33l22 19l35 94l22 37l29 90l8 47l-2 51l25 41v49l26 43l21 43l8 47l-4 52l27 41v49l12 45l31 41l10 47l-2 49l18 45l29 41v-49l14 -51l-4 -56l29 -49l-8 -45l-58 -135l-2 -49l4 -49l-34 -41v-49l-13 -48l-18 -45v-49l-10 -47l-21 -43l-29 -43 l19 -41l-15 -43l19 -47l39 -16l41 -4l20 -27l4 -29l-26 -51l-43 4l-49 -2l-52 6l-51 -22h-100l-43 8l-35 22zM428 379l23 39l14 41l39 -6l45 18l43 4l45 -4h45l4 39l-31 43l7 51l-15 47l-20 45v52l-25 43l2 51l-20 45l-17 47v49l-28 43v51l6 51l-35 43l-10 48v49l-4 53 l28 45l49 4l52 -16l49 6l51 2l49 -4l51 4l52 18h49l8 -63l18 -94l19 -45l12 -48l18 -45l-12 -53l12 -47l41 -39l-20 -53l49 -88l-14 -53l28 -43l23 -45l2 -50l-6 -51l16 -45l6 -49l11 -47l28 -43l-10 -51l37 -41l-12 -51l26 -46l4 -40l11 -31l45 -6l28 -15l25 -45l-16 -39 l-33 -22l-39 18l-51 -26l-50 12l-49 16l-51 -16h-49l-51 -8l-49 22h-101l-49 6l-33 -10l-32 17l6 28l-4 39l22 8l6 -10l47 35l-10 65l4 52v51l-39 43l-34 2l-48 -14l-47 28l-45 -16l-47 16l-47 -12zM453 1792l79 37l58 -8l39 2l57 -72l43 -35l6 -45l-4 -45l25 -41l-2 -45 l22 -39l2 -39l-41 4l-43 -10l-47 76l-51 12l-16 45l-39 25l-21 41l-35 22l-8 27l-22 29z" />
<glyph unicode="&#xc1;" horiz-adv-x="1357" d="M41 59l14 31l84 27l45 37l11 28l18 27l12 37l41 84v49l17 45l-9 51l21 43l35 39l-8 51l18 45l41 86l-12 54l12 47l8 45l37 39l12 47l-14 53l35 39l-4 51l22 -55l15 -51l8 -54l-2 -55l6 -41l-15 -47l-2 -49l-22 -43l-14 -45l-7 -49l-12 -45l-8 -48l-21 -45l-10 -45 l-24 -43l-19 -45l-8 -47l-4 -49l-6 -37l28 -78l29 -26l35 -15l27 -20l14 -29l-16 -26l-25 -19l-39 2l-51 -12l-51 -8l-52 24l-51 -30l-49 30l-37 -2l-26 19zM440 342l19 33l-8 45l8 41l100 6l45 -23l88 27l-12 35l-27 45l13 53l-21 45l10 51l-37 43l-4 48l-16 98l-23 43 l9 53l-23 94l-31 43l5 52l-27 45l10 51l12 45l5 51l49 12l51 -18l49 20l51 -20l49 -8l52 10l51 -6l49 2l27 -135l14 -47l24 -43l9 -48l20 -45l8 -47l-4 -51l23 -143l26 -43l23 -94l-4 -52l33 -41l10 -47l-2 -51l12 -47l31 -41l-17 -53l31 -92l8 -50l31 -61l37 -18l22 -19 l21 -39l-19 -24l-22 -19l-37 -10l-49 16l-51 -30l-49 2l-52 16l-49 -12l-49 14l-51 2l-49 6h-51l-50 -28l-34 18l-25 23l-10 26l6 37l22 14l5 -10l49 31l-4 39l4 28l-15 48l4 53l-32 43l-37 6l-92 -16l-47 22l-48 -16zM655 1448l19 49l14 86l-2 47l27 39l-6 45l51 88l47 13 l39 -3l125 21l18 -39l-4 -33l4 -32l-18 -35l-27 -11l-43 -75l-41 -23l-57 -65l-43 -23l-19 -41z" />
<glyph unicode="&#xc2;" horiz-adv-x="1329" d="M41 57l2 27l29 29l43 12l26 12l35 43l14 29l9 39l30 37l17 45l-15 53l37 39l17 43l6 49l16 45l12 45l-14 53l27 41l14 47l-2 50l10 45l27 43l10 94l39 39l6 47l19 45l-13 -53l13 -51l34 -48l15 -51l-23 -47l-10 -47l-14 -45l-23 -43l-16 -45l4 -51l-8 -47l-19 -45 l-24 -43l-11 -48l-18 -43l16 -55l-39 -39l-2 -49l-10 -37l15 -43l6 -49l39 -20l36 -9l19 -22l10 -25l-8 -22l-21 -17l-38 -18l-52 6l-51 -12l-49 18l-51 -6l-51 -16l-35 28l-29 17zM418 1466l8 27l10 20l39 27l25 41l63 70l35 32l41 25l12 29l33 2l16 12l52 6l24 -20l21 -6 l20 -27l74 -57l20 -48l43 -24l39 -27l17 -51l24 -8l21 -23h-35l-14 -8l-54 2l-55 -18l-55 22l-23 -6l-22 -10l-4 33l-33 -2l-10 49l-17 43l-43 -41l-4 -51l-27 -9l-10 -16l-16 2l-21 -4l-47 18l-47 -30l-47 18l-33 -4zM420 379l33 37l-4 43l45 -13l45 27h45l45 -24l43 2 l-13 55l-14 47l10 53l-28 43l-23 45l-20 94v52l-31 92l4 51l-12 47l-4 49l-21 45l-2 50l-18 47l4 51l-17 49l17 47l59 -8l51 18l52 -28l49 2l51 6l51 18l49 -4l52 -20l2 -35l28 -43l-12 -53l31 -41l22 -45l-18 -54l26 -45l9 -47l-5 -51l35 -41l-10 -51l27 -43v-49l16 -47 l31 -43l-10 -52l8 -47l24 -45l-8 -51l33 -41l16 -47l-12 -51l27 -45l-2 -49l18 -46l18 -36l9 -27l32 -23l21 -22l10 -31l4 -33l-33 -6l-34 -2l-50 -18l-49 16l-51 -6l-49 8l-51 -18l-49 4l-50 16l-51 -18l-49 8l-51 -14l-33 16l-26 21l-9 26l13 33l16 12l-2 4l63 60l-10 30 l4 52l-28 45l-23 45l-33 -13l-45 13l-94 -13l-45 21l-47 -2z" />
<glyph unicode="&#xc3;" horiz-adv-x="1349" d="M41 57l4 27l37 10l57 47l27 13l18 24l6 33l23 33l14 41l4 49l31 90l2 49l31 39l-12 53l32 41l19 43l8 47v49l16 46l27 43l4 47l-2 49l16 45l5 49l30 39l23 45l12 -45l8 -53l-14 -60l35 -45l-25 -45l8 -51l-22 -94l-17 -45l-24 -43l-2 -49l-33 -41l4 -50l-31 -43l-16 -45 l4 -49l-6 -49l-12 -45l-19 -35l15 -43l22 -31l23 -36l39 -2l16 -31l8 -53l-22 -29l-45 4l-52 12l-49 -12l-51 -6l-51 18l-51 4l-39 -14zM352 1509l2 50l33 40l14 58l27 41l80 18l31 13l34 4l39 8l105 -35l41 4l37 -31l45 -8l12 -16l35 -13l45 9l35 20l4 31l14 33l35 8 l20 -17l23 -28l-29 -49l2 -43l-26 -29l-6 -35l-27 -24l-64 -68l-41 14l-36 -18l-76 14l-17 6l-67 11l-72 24l-31 23l-38 4l-50 14l-43 -45l-18 -24l-29 2l-16 8zM424 348l18 27l13 41l-6 45l49 10l43 2l45 -29l45 15l45 -15l-27 60l-4 149l-14 47l-37 41l14 54l-16 45 l-27 45l-2 49l-14 47l10 51l-14 47l-4 49l-21 46l-8 49l-14 47l18 43l2 51l49 12l49 2l101 -20l51 16l51 -26l49 28l52 -16l22 -39l-16 -53l41 -41l-6 -49l16 -48l24 -43l3 -49l16 -47l-12 -51l12 -47l8 -47l16 -47l25 -43l10 -97l21 -45v-49l18 -47l-2 -49l35 -41l-2 -51 l41 -88l-12 -53l10 -48l33 -32l-2 -33l41 -8l26 -19l23 -43l-21 -30l-26 -21l-39 -4l-49 -14l-50 4l-51 14l-49 10l-49 -20l-51 10l-50 14l-51 -30h-49l-49 18l-37 -4l-18 29l-4 22v35l16 14l8 -14l49 74l-2 30l-24 97l2 51l-105 12l-47 -31l-47 21l-45 -6z" />
<glyph unicode="&#xc4;" horiz-adv-x="1368" d="M41 59l27 19l22 39l49 -4l15 30l18 19l39 47l8 39l27 37l12 47l8 47l-4 49l33 41l10 94l21 45l26 90l10 47l-2 50l33 41l6 47l35 88l8 47l21 45l-4 49l26 -51l-4 -55l35 -48l2 -53l-24 -45l-13 -47l6 -51l-22 -43l-8 -47l-23 -43l-6 -49l-18 -43v-52l-19 -43l-14 -96 l-33 -41l-6 -47l-10 -37l8 -43l18 -41l39 -12l27 -31l26 -14l7 -27l-9 -24l-18 -29l-43 -6l-51 -2l-49 24l-52 -18l-51 18l-51 -24l-37 16l-31 19zM395 1597l27 54l10 65l60 25l57 -10l37 6l30 -21l39 -12l50 -41l-15 -66l-2 -55l-41 -41l-43 -37l-55 2l-62 -14l-53 33 l-8 61zM440 342l21 33v86h53l43 -15l45 17l45 4l45 -4l2 47l-22 45l2 49l-29 45l4 51l-16 45l-15 97l-28 45l-6 47l2 51l-33 43l-10 47l-4 49l-15 47l11 54l-25 43l14 47l4 51l56 -4l49 -8l51 4l49 24l51 -16l52 8l49 -6l51 8l16 -57v-98l21 -45l24 -43l-8 -54l10 -47 l25 -43l27 -92l16 -47l-6 -51l35 -90l20 -45l-14 -54l35 -41l6 -49l14 -45l-10 -53l6 -47l12 -47l27 -43l8 -47l25 -45v-41l43 -60l30 -2l29 -37l-24 -28l-25 -23l-39 10l-49 -2l-49 -12l-51 16l-50 -10l-49 10l-51 -22l-49 20l-51 -4l-49 -14l-50 -10l-28 32l-33 9l-2 63 l16 21l2 -5l49 25l13 31l-15 80l-4 49l-34 43l-33 -10l-45 10l-47 14l-48 -2l-45 -22zM780 1536l4 61l-2 64l58 33l41 28l49 45l37 -36l34 -13l33 -16l23 -51l28 -54v-63l-45 -45l-51 -31l-59 -24l-53 32l-41 37z" />
<glyph unicode="&#xc5;" horiz-adv-x="1355" d="M41 59l16 31l37 23l43 8l25 16l20 19l11 30l14 27l10 37l49 80l15 45v49l-5 51l25 41l14 45l9 47l30 41l-12 53l16 46l43 86l15 45l-10 51l28 92l19 43l22 43l6 -49l13 -51l2 -54l39 -45l-35 -51l-19 -43l6 -51l-16 -45l-29 -43v-98l-14 -48l-41 -36v-50l-18 -45l4 -51 l-27 -43l-10 -45l10 -41l-8 -43l24 -33l29 -28l37 -9l23 -24l14 -29l-4 -33l-35 -12l-41 -2l-49 8l-51 -2l-52 2l-51 -24l-49 18l-70 19zM442 340l13 37l18 82l43 14l45 -24l43 12l45 -12l45 14l-26 41l-2 49l-19 45l-10 49v98l-19 48l-2 49l-20 45l-4 49l-31 143l-24 45 l-7 47l-20 48l14 53l-4 45l23 47l43 18l49 -24l51 -4l51 8l49 -8h52l100 18v-57l27 -43l-9 -51l35 -41l-2 -52l29 -41l-12 -53l10 -47l18 -45l8 -47l35 -43l-16 -53l31 -43l4 -47l-2 -52l20 -45l16 -45l-2 -49l23 -45l10 -47l4 -49l31 -43l-6 -49v-52l29 -86l24 -18l27 -37 l30 -2l15 -39l-8 -28l-27 -21l-37 -14l-100 26l-49 -28l-52 6l-49 2l-51 14l-49 -18l-49 22h-51l-50 -16l-36 2l-29 22l-2 31l18 27l17 6l-11 16l50 27l10 33l-2 33l-23 45l-18 47l14 53l-55 -14l-47 -2l-47 24l-45 -10l-48 -4zM582 1640l4 50l78 47l30 43l47 -8l43 -19 l52 6l55 -73l8 -44l21 -43l-23 -40l-4 -46l-27 -34l-35 -33l-40 -25l-48 13l-45 -2l-39 20l-45 16l-26 39l-4 47l2 43zM641 1599l45 -59l57 -39l76 23l-4 75l-14 58l-60 14l-71 2z" />
<glyph unicode="&#xc6;" horiz-adv-x="1923" d="M41 49l16 37l84 37l60 61l6 54l37 30l14 47l55 76l15 47l49 80l29 37l34 33l27 39l16 47l35 33l6 51l47 26l17 43l35 35l14 45l20 43l39 31l27 39l20 43l11 49l43 29l-17 -39l-8 -47l25 -47l4 -47l-27 -48l-29 -39l-34 -32l-13 -47l-49 -25l-10 -47l-14 -47l-31 -37 l-43 -29l-21 -41l-10 -49l-18 -43l-39 -33l-14 -45l-39 -32l-29 -37l-47 -80l-21 -41l15 -43l6 -33l18 -16l37 4l21 -23l20 -12l12 -14v-27l-6 -20l-16 -15l-29 -18l-49 -2l-49 -6l-49 4l-49 16l-50 8l-51 -22l-45 22zM475 330l12 53l37 31l29 35l31 12l45 -17l45 -4l45 23 l43 -6l45 16l43 -24v104l-6 49l6 49v146l8 47l-8 49l4 49l-16 47l26 49v47l-12 50l16 49l-14 39l-33 22l-33 6l-26 23l-8 39l8 30l26 23l37 -6l27 14l49 -8l49 2l51 6l50 -2l51 6l49 -24l49 -4l51 32l49 -32l-14 -31l29 -94l-31 -47l2 -48l8 -47l4 -47l-8 -47l2 -47l-2 -47 l15 -47l-21 -47l23 -47l-7 -47l-16 -48l8 -94l19 -47l-2 -47l-21 -47l29 -47l-21 -47l-12 -47l6 -47l17 -48l-4 -47l-17 -47l27 -94l-113 10l-49 -10l-49 -16l-51 10l-50 20l-100 -16l-76 -2l-32 20l-37 2l-13 33l19 39l31 10l53 45l10 37l-4 54l-14 51l14 51l-47 2l-47 10 h-47l-47 -24l-48 2l-47 16l-47 -16zM1368 53v56l111 41l92 20l20 43l41 18l15 41l28 56l29 41l6 34l23 17l20 -2l39 -17v-30l8 -19l15 -49l-11 -51l6 -51l-12 -49l14 -52l-24 -100l-33 -12l-47 12l-45 6l-47 10l-47 -28l-47 6l-47 2l-45 10l-48 6zM1374 1307l23 59l30 8 l46 -18l45 10l45 -16l45 12l45 -8l45 10l45 -10l45 20l-6 -59v-51l-6 -52l26 -51l-6 -49l6 -51l-14 -51l-23 -35l-24 -17l-33 3l-41 61l6 33l-35 28l-22 27l-8 51l-82 31l-29 41l-45 -10l-35 12l-37 4zM1378 696l23 58l33 24l32 53l35 17l23 51l2 33l12 31l27 14l24 -14 l29 -52l-4 -26l12 -94l-6 -50l-18 -47l22 -47l-4 -47l4 -49l-22 -47l12 -39l-15 -31l-30 -12l-29 10l-35 49l-12 27l-2 29l-16 30l-21 29l-27 20l-22 23l-23 -4z" />
<glyph unicode="&#xc7;" horiz-adv-x="1302" d="M82 625l16 45l-4 45l8 43l-12 47l12 41l23 39l-6 45l12 59l39 47l16 58l47 36l17 41l33 27l61 59l35 27l27 35l51 6l37 27l45 12l49 37l61 -27l35 19l2 -82l-12 -41h-21l-41 -37l-34 -43l-13 -53l10 -39l-20 -49l10 -50l2 -49l-12 -47l25 -49v-98l-19 -47l-4 -50l2 -49 l-8 -49l18 -47l-14 -98l23 -49l-7 -48l15 -49l-2 -43l-17 -28l11 -27l26 -51l27 -2l26 -6l25 -21l12 -37l-2 -41l4 -41l-47 -2l-59 -12l-49 47l-52 10l-47 17l-47 2l-26 41l-70 47l-27 33l-47 16l-12 45l-55 66l-13 45l2 47l-38 37l16 47l-10 39v41l-19 43zM573 -250l27 66 l-22 57l47 33l53 18l45 35l37 -16l71 -25l15 -39l57 -51l-22 -43l26 -35l-12 -39l-8 -39l-13 -37l-26 -30l-39 -56l-72 -14l-28 -20l-31 -11l-60 37l25 27l19 31l40 20l29 4l25 17l-6 43l-29 -7l-47 19l-47 12zM743 1389l54 2l32 -2l56 -11l30 -35l37 -12l45 2l41 -8l17 25 l28 16l15 31l26 -4h29l12 -29l13 -80l16 -47l-27 -47l-2 -45l9 -47l-7 -45l4 -92l7 -48l-25 -69l-63 -6l-21 28l-18 35l-9 70l-53 88l-35 51l-12 64l-41 36l-76 58l-37 -8l-22 16l4 53zM756 55l10 41l20 2l95 35l37 35l45 2l41 31l34 100l27 37l25 29l10 22l24 10l31 -2 l19 -55l8 -47l-31 -43l-12 -53l-33 -23l-23 -31l-28 -22l-15 -39l-116 -72l-119 -26l-39 -23l6 51z" />
<glyph unicode="&#xc8;" horiz-adv-x="1298" d="M123 14l2 39l8 37l60 27l43 65l-7 47l-20 97l12 47l-6 47l14 49l-8 47l-14 47l14 49l-4 47l21 48l-23 47v96l14 47l-10 47l12 49l7 47v95l-23 49l-6 33l-14 38l-35 2l-19 27l-14 29l-2 37l37 4l33 18l26 -12l51 22l50 -22h49l49 -4l100 6l49 18l49 -26l52 18l4 -53 l-19 -47l11 -47l18 -47l-25 -48l23 -47l-12 -47l10 -94l-25 -47l29 -47l-8 -47v-94l-19 -48l13 -47l8 -47l-23 -47l19 -47l-6 -141l-15 -47l19 -47l8 -48l-25 -47l2 -47l9 -47l-7 -47l-41 -6l-49 4l-49 -2l-49 -12l-51 20l-49 -22l-49 24l-50 10l-51 -16l-63 -6zM422 1759 l39 51l114 17l35 -25l49 -2l41 -33l15 -51l-2 -47l16 -86l4 -45l35 -37l-4 -59l-41 22l-47 -12l-14 47l-74 51l-51 74l-31 31l-33 22l-8 29zM737 1366l60 6h45h45h45l45 -10l47 6l45 -14l45 18l45 8l15 -65l-27 -51l16 -103v-100l-20 -51l2 -43l-35 -9l-29 7l-32 28l2 35 l-37 57l-27 25l-18 43l-35 25l-35 20l-31 37l-39 10l-43 -12l-34 12l10 62zM745 754l60 22l16 25l15 30l59 66l-6 37l18 29l29 6h29l22 -29l6 -29l-10 -26l4 -47l-16 -47l6 -97l-6 -47l6 -47l14 -49l-2 -47l-12 -37v-41l-39 -6l-33 4l-6 37l-12 22l-10 31l-21 23l-18 28 l-4 39l-33 17l-25 20l-22 4l16 51zM752 2v51l12 56l10 -3l84 9l37 32l29 46l45 12l35 24l28 78l19 19l4 49l24 28l27 13h18l21 -8l20 -5l-2 -32l4 -19l-6 -49l29 -51l-2 -51l-8 -49l-17 -52v-49l17 -51l-54 -4l-47 20l-47 -20l-47 -10l-47 22l-45 6l-47 -2l-47 -26z" />
<glyph unicode="&#xc9;" horiz-adv-x="1292" d="M123 1352l33 20l39 -16l77 26l50 -8l98 8l51 -32l49 18l49 -18l49 2l52 8l2 -41l10 -47v-94l-6 -48v-94l6 -47v-47l-27 -94l23 -47l-12 -47l10 -47l-19 -95l11 -47l18 -47l-24 -47l2 -47l10 -47l-10 -47l16 -47l-10 -47l14 -48l-12 -47l-2 -47l2 -47l12 -49h-66l-49 -16 l-49 16h-49l-51 12l-49 6h-49l-50 -18h-51l-63 -4l-31 24v35l12 31l23 16l35 9l30 34v136l13 47l-17 47l4 96l-10 94l16 49v95l-14 47l2 49l-10 47l-4 47l33 47v96l-11 47l2 48l-2 49l-8 37l-24 41l-39 -11l-21 29l-12 33zM588 1442l8 57l22 39l-4 47l15 43l10 41l2 45 l18 47l46 23l32 33l39 8l109 -27l39 -2l-11 -35l5 -32l-23 -29l-14 -25l-41 -16l-31 -31l-27 -37l-16 -43l-25 -37l-45 -18l-26 -37l-41 12zM735 109l113 45l39 8l41 26l47 11l26 32l11 45l16 31l27 17l16 45v39l27 26l26 -6l23 -18l24 -4l11 -33l-13 -21l-2 -49l4 -51 l-10 -51l15 -49l-7 -52l5 -49l-5 -51l-43 4l-47 -16h-47l-47 28l-92 -6l-47 -26l-47 18l-47 -8l8 59zM735 1366l62 2l45 -8l45 16l45 -12h45l47 -4l45 18l45 2l45 -18l4 -47l-10 -51l23 -52l-23 -100l2 -51l16 -51l-16 -49l-43 -11l-33 13l-14 36l-27 23l2 31l-30 30l-19 29 l-28 37l-19 43h-49l-27 41l-43 2l-39 -2l-34 4l-13 70zM739 696l13 58l65 51l35 14l10 33l31 47l6 33l12 24l25 21l41 -39v-27l14 -26l-4 -47l17 -47l-33 -50l20 -47l2 -47l-22 -47l30 -49l-14 -47l-8 -37l-12 -31l-29 -14l-33 4l-28 55l6 33l-27 21l-16 30l-43 49l-25 19 h-20z" />
<glyph unicode="&#xca;" horiz-adv-x="1312" d="M123 1313l22 30l66 35l27 -10l49 -4l49 8l49 4l51 -12l49 -2l50 20l49 -32l51 2l49 6l12 -39l2 -47l-10 -47l4 -47l-24 -48l10 -47l6 -94v-47l-4 -47l8 -47l12 -47v-47l-6 -47l6 -48l-4 -47l4 -47l-26 -47l16 -47l4 -47l-12 -47l10 -47l-24 -47l22 -47l-8 -48l4 -47 l-4 -47l-8 -47l26 -47l-65 16l-51 -6l-49 -24l-50 28l-49 -12l-51 2l-49 -2l-49 -18l-49 30l-27 -22l-35 18l-22 17l-11 26l29 62l33 10l28 20l-8 37l2 47l19 50l-19 47l17 47l-4 47v49l-19 47l31 47l-25 49l23 47l-19 48l21 47l-2 49l-23 47l13 47l-4 47l12 49l-19 47 l17 47l-15 48v49l7 39l-29 32l-35 -2zM389 1470l14 21v18l43 23l11 55l51 17l37 30l8 56l51 18l10 27l31 6l19 8h51l24 -8l17 -15l73 -38l29 -37l19 -49l43 -25l53 -78l31 -4v-25l-13 -10l-22 2l-54 -16l-55 10l-55 -8l-23 10l-22 -6l-8 25l-19 12l-18 41l-31 33l-33 -31 l-20 -41v-27l-37 4l-19 -8l-47 -12l-47 22l-49 -14zM750 1366l63 10l45 -26l45 10l45 16l45 2l45 -4l45 2l45 -8l46 2l4 -55l10 -51l-25 -52l-4 -51l25 -49l-29 -51l23 -51l-17 -43l-33 -29l-36 20l-25 37l-14 27l-9 27l-2 45l-55 63l-31 31l-32 26l-82 19l-37 14l-39 -2 l6 62zM758 53l4 56l26 6l76 26l35 25l47 18l25 33l30 29l39 20l13 37l16 21l21 45l4 34l22 21h23l28 8l19 -26l-4 -35l-2 -68l18 -51v-51l-14 -49l-2 -52l18 -49l4 -51l-63 14l-47 -16l-47 6l-46 -2l-47 -12l-47 6l-47 20l-47 -28l-45 12zM768 641l12 55l-10 58l23 14l28 8 l23 17l6 38l20 23l25 47l-2 37l33 18l24 11l23 -9l20 -20l17 -27l-17 -26l8 -47l-14 -47l25 -50l-17 -47l-10 -47l4 -47l17 -49l-7 -47l9 -39l-15 -41l-41 -14l-30 18l-19 29l-4 26l-18 27l-11 25l-53 88l-31 8z" />
<glyph unicode="&#xcb;" horiz-adv-x="1304" d="M123 1313l8 35l35 10h61l49 18l52 -12l49 -6l49 18l49 -10l51 -6l49 14l50 -14l51 14l-19 -55l23 -47l-6 -47l10 -47l-2 -48l4 -47l-27 -47l29 -47l-24 -47l14 -47l-2 -47l-17 -47l17 -47l-14 -47l20 -48l-23 -94l31 -47l-10 -47l10 -47l-16 -47l-10 -94l20 -47l-18 -95 l-7 -47l29 -47l-16 -47l-97 16l-49 -2l-51 -10l-49 -20l-49 8l-49 -4l-52 24h-49l-26 -4l-37 -12l-27 27l-8 30l10 35l29 16l31 11l26 30v84l13 50l6 94l-6 47l-2 49l2 47l-27 47l18 49l-10 47l10 95l-4 49l-12 47l10 47l-10 47l23 49l-15 47l19 47l-11 48l17 49l-19 37 l-30 26l-29 15l-35 10zM305 1597l29 54l20 55l45 37l60 -12l39 14l34 -19l27 -28l55 -101l-10 -59l-49 -35l-37 -45l-59 12l-58 -8l-41 37l-38 43zM690 1661l53 37l48 26l51 7l41 20l39 -14l24 -35l47 -41l-18 -64l2 -55l-19 -61l-57 -29l-59 18h-54l-53 21l-37 47l9 59z M743 53l13 56l24 2l76 32l43 11l33 36l49 9l25 37l16 36l31 27l24 70l6 34l25 21l22 10l21 -24l14 -11l6 -28l11 -19l-11 -49l7 -51l2 -51l16 -49l-10 -52l2 -49l-17 -51l-41 -12l-45 22l-94 -26l-47 4l-47 -2l-92 20l-47 -16zM745 696l7 58l55 26l35 51l28 19l2 53l27 29 l19 26l49 5l16 -25l6 -27v-26l10 -47l-20 -47l29 -50l-2 -47l-13 -47l11 -47l-17 -49l12 -47v-39l-30 -25l-25 -12l-33 -2l-8 35l-20 20l-6 60l-35 22l-15 29l-47 45l-24 -4zM748 1307l6 59l94 6l45 -12l45 20l45 -12l45 -18l45 8l45 -8l45 6l15 -41l-2 -51l-21 -52l-8 -51 l2 -49l20 -51l-22 -51l12 -49l-41 -9l-33 11l-34 30l4 33l-19 23l-18 36l-8 37l-47 19l-21 41l-31 28l-39 21l-41 -2l-73 22z" />
<glyph unicode="&#xcc;" horiz-adv-x="890" d="M123 16l6 76l31 10l30 19l17 26l4 35l-6 47l4 50l8 47l-10 47v96l20 47l-14 47l14 49l-8 95l14 47l-6 49l9 47l-11 47l-2 47l6 96l-22 47l29 48l-21 49v37l-22 32l-33 7l-31 12l2 41l4 26l23 27h37l26 -6l49 16l52 -22l49 16l149 -8l49 16l52 -30l49 20l26 -12l39 16 l33 -22l-6 -37l6 -47l-35 -11l-35 -2l-10 -36l-18 -33l-15 -49l25 -48l-23 -47l25 -47l-14 -49l-11 -47l23 -47l-14 -47l14 -49l4 -47l-2 -48l-25 -47l2 -49l27 -47l-8 -47l-2 -49l-19 -47l25 -47l-16 -97l20 -47l-18 -39l34 -16l50 -43l12 -31l-6 -30l-27 -15l-35 -6l-75 2 l-52 8l-49 -18l-49 -4h-51l-49 12l-49 16l-52 -20l-75 10l-37 -4zM182 1759l31 62l61 -17l60 23l82 -29l24 -41l19 -45l22 -39l2 -45l-6 -47l23 -84l22 -35l-78 -2l-43 23l-26 35l-23 41l-39 22l-28 33l-17 47l-37 18l-24 58z" />
<glyph unicode="&#xcd;" horiz-adv-x="899" d="M123 16l4 37v41l29 19h37l24 69l-6 47l10 50l-8 47l20 47l-12 47l12 49l-8 47l6 47l-2 49l-10 47l4 144l-4 47l4 47l-8 47l18 49l3 47l-25 47l14 48l8 49l-18 37l-57 32l-35 60l2 35l31 18l37 2l26 -6l51 12l49 -8l50 2l51 -4l49 8l49 -14l51 -10l49 6l52 26l61 -18 l45 -49l-18 -37l-27 -19h-37l-20 -36l4 -37l-2 -49l2 -48l6 -47l-22 -47v-49l20 -47l-29 -47l21 -47l-15 -49l5 -47l20 -95l-18 -49l-11 -47l13 -47l-6 -49l16 -47v-94l-10 -50l-15 -47l23 -37l26 -20l62 -29l-4 -43l2 -35l-29 -20l-63 -6l-52 -8l-49 18l-51 -2l-49 -12 l-49 26l-51 -6l-50 -16l-49 2l-51 8l-61 2zM373 1446l12 53l16 41l11 43l-2 45l8 43l24 41l17 43l26 37l41 14l35 27l60 -6l55 -21l24 -14l-2 -31l-8 -26l-28 -54l-25 -30l-25 -37l-88 -101l-47 -16l-16 -45h-45z" />
<glyph unicode="&#xce;" horiz-adv-x="905" d="M123 1313l10 30l90 25l49 -18l50 2l51 10l49 2l49 -6l51 2l49 -4l50 22l77 -12l33 -14l35 -4l16 -35l-22 -35l-25 -25l-37 2l-14 -36l-20 -35l24 -49l-31 -48l21 -47l4 -96l-4 -47l8 -47l-31 -47l23 -49l4 -47l-25 -48l2 -47l-6 -49l11 -47l-5 -47l23 -49l-14 -47l12 -47 l-25 -97l29 -47l-8 -37l31 -16l24 -27l31 -12l-6 -63l-23 -17l-35 -12l-26 8l-51 -14l-50 18l-49 -8l-51 -14l-49 16l-49 -14l-51 -6l-50 24l-49 -6h-26l-39 -10l-27 28l-6 33l10 35l27 18l31 13l38 22l-10 88l8 50l-8 94l-12 47l22 49l-8 47l4 47l-4 49l2 47l13 48l-9 47 l2 49l-14 47l19 47l-23 47l8 49l-10 47l10 47l17 48l-9 49l-2 39l-37 22l-30 12l-29 17zM135 1468l76 115l43 25l61 71l41 27l19 18l22 15l17 14l51 8l31 -10l20 -12l25 -23l22 -43l39 -31l29 -36l41 -27l20 -45l45 -23l21 -41l-19 -6h-129l-53 11l-25 -23l-22 -4l-10 25 l-15 18l-14 43l-45 25l-14 -33l-11 -47l-28 -6l-8 -25l-39 14l-47 -10l-48 -2l-47 -8z" />
<glyph unicode="&#xcf;" horiz-adv-x="964" d="M123 1597l39 56l26 47l43 39l58 16l41 -4l76 -37l12 -63l41 -54l-21 -61l-37 -49l-51 -35l-61 6l-62 -8l-28 57l-47 35zM160 53l12 35l25 18l30 11l35 26l8 39l-14 47v97l8 47l-12 47l4 49v94l10 49l4 47v48l-20 47l12 49v47l-6 47l-12 47l22 49l4 47l-8 47l-14 48l-4 49 l18 39l-37 18l-26 29l-33 4l4 39l-4 33l65 22l27 -8l49 14l49 2l52 -14l49 -4l51 22l49 -12l49 -6l51 8l50 -20l26 20l68 -22l6 -35l-12 -37l-23 -27h-37l-14 -32l-21 -33l-8 -49l25 -48v-94l-8 -49l-13 -47l25 -47l-4 -47v-96l-17 -48l11 -47v-96l-17 -47l-4 -49l23 -47 l-11 -94l21 -97l-8 -35l18 -38l37 8l18 -35l31 -31l-49 -47l-37 -14l-26 8l-50 -10l-51 20h-49l-49 -20l-51 20l-49 -14l-52 -6l-49 28l-49 -18l-65 -2l-31 22zM520 1536l2 61l13 58l18 63l65 6l52 37l43 -6l37 -20l32 -25l17 -59l43 -54l-58 -110l-63 -8l-49 -13l-64 -22 l-51 39z" />
<glyph unicode="&#xd1;" horiz-adv-x="1443" d="M123 49l6 21l12 18l27 18l20 31l37 8l11 39l32 78l-14 39l10 96l15 47l-17 48l2 47l12 96l-22 47l14 47l-16 49l-4 47l16 47l2 48l-6 47l10 49l9 -51l22 -45l43 -35l12 -54l23 -40l-8 -50l12 -49l-18 -49l-7 -49l4 -49l21 -47l-21 -49l-4 -99l17 -49l-15 -37l13 -33 l18 -24l4 -31l25 -22l16 -31l56 -37l28 -2l6 -33l-14 -26l-33 -9l-43 -20l-45 8l-47 -8l-45 12l-47 -18l-45 2l-45 31l-35 -11zM125 1315v37l33 8l35 16l51 -18l49 6l49 10l47 -16l49 20l49 -14l50 14l49 -26l47 -2l49 24l12 -57l49 -29l5 -53l18 -45l49 -27l8 -51l66 -76 l24 -98l48 -27l2 -55l34 -37l13 -49l45 -29l14 -49l21 -43l28 -39l25 -43l26 -39l50 -86v-98l-21 -49l2 -49l-2 -49l25 -50l-25 -49l23 -49l-2 -49l-97 -8l-45 22h-45l-45 -24h-47l-33 47l-4 53l-43 31l-26 41l-37 90l-37 33l-12 49l-39 35l-9 51l-30 37l-8 51l-27 41 l-23 43l-47 29v55l-37 35l-20 43l-31 39l-10 49l-35 37l-24 41l-15 47l-22 43l-35 34l-29 41l-8 50l-43 32l-4 35l-33 17l-31 24l-38 4zM401 1475l5 34l10 45l4 48l37 40l22 41l27 23l29 33l38 4l35 -4l41 4l33 -8l35 -21l76 -10l34 -31l43 -16l21 6l35 -2l45 -19l37 25 l26 55l23 9l16 -9l2 -30l17 -47l-17 -39l-43 -60l-10 -35l-43 -24l-66 -43l-41 2l-43 8l-34 -2l-19 6l-57 39h-39l-37 12l-37 9l-33 18l-16 6l-35 6l-30 -20l-60 -66zM954 1294l4 27l25 37l49 22l51 -6l50 4l51 -6l51 4l49 -20l47 2l25 -21l6 -63l-45 -31l-47 -6l-15 -25 l-8 -24l-18 -23l-2 -30l-21 -39l-2 -39l13 -45l-15 -45l12 -45l-14 -48l17 -45l2 -45l8 -45l-2 -47l-17 -45l-2 -45l-18 45l-41 35l2 63l-53 29l4 53l22 45l-30 93l16 47l10 45l-12 24l-6 27l-25 49l-10 33l-6 41l-43 20l-33 35z" />
<glyph unicode="&#xd2;" horiz-adv-x="1392" d="M82 717l14 41l-10 41l2 41l27 55l18 55l-2 64l33 51l45 43l16 61l39 45l35 52l49 32l62 15l43 43l63 -2l45 47l57 -15l41 7l7 -54l-13 -51l-26 -14l-19 -21l-35 -8l9 -55l-33 -45l16 -47l-18 -47l24 -47l-22 -48l2 -47l-4 -47l28 -47l-24 -47v-94l8 -47l-10 -47l22 -48 l9 -47l-25 -47l6 -47l-10 -47v-47l12 -47l8 -49l11 -31l4 -31l18 -26l23 -21l20 -8l8 -121l-32 4l-56 13l-102 51l-57 16l-70 51l-29 33l-35 27l-26 32l-41 25l-23 39l-4 49l-18 39l-51 84l2 51l-29 55l10 62l-10 41zM438 1759l6 33l15 39l67 -2l58 -10l118 -56v-53l21 -39 l4 -45l21 -41l-7 -45l35 -37l-4 -55h-41l-37 12l-41 23l-26 37l-19 41l-26 36l-43 21l-39 24l-11 46l-14 20l-24 27zM721 1339l12 54l39 -15l59 21l50 -33l53 -27l53 -22l62 -14l77 -91l35 -49l51 -39l15 -61l41 -47l18 -58l8 -59l-14 -61l23 -39l-13 -43v-41l15 -39l-9 -41 l17 -43l-19 -57l9 -62l-13 -49l-30 -41l-31 -90l-29 -35l-35 -31l-18 -39l-14 -45l-33 -28l-47 -15l-25 -39l-49 -4l-41 -47l-55 -22l-56 -17l-61 23l-29 -14l8 49l-12 55l29 14l22 19l35 51l15 33l-3 49l13 47l-2 47l-8 47l-5 47l11 47l-23 47l23 95l-27 47l33 47l-4 47 l4 47l-23 47l-2 47l8 47l-8 48l-4 94l21 47l-17 47l-4 51l-22 23l-56 22z" />
<glyph unicode="&#xd3;" horiz-adv-x="1404" d="M82 633l22 43l-18 41l16 41l-10 41l21 39l4 59v59l51 48l-6 65l35 49l41 47l47 37l18 66l98 69l60 17l61 6l47 31l56 12l20 -10l35 -54l-14 -63l-33 2l-19 -23l-32 -10l-25 -49l-2 -51l8 -47l23 -47v-47l-8 -48l-21 -47l23 -47l2 -47l-23 -47l23 -47l-27 -47l4 -47 l19 -47l-19 -48l8 -47l-12 -47l25 -47l-9 -47l15 -47l-27 -47l25 -47l-11 -37l41 -51l21 -21l24 -10l11 -55l-8 -64l-33 -6l-51 29h-60l-57 16l-43 47l-84 33l-21 43l-45 16l-28 33l-15 47l-20 39l-27 35l-22 39l-17 47l-6 47l-33 43l27 64l-18 57zM662 1501l38 37v45l17 41 l-2 47l12 41l10 51l39 31l41 16l37 -2l57 9l64 4l22 -27l-6 -33l6 -32l-18 -33l-29 -13l-22 -32l-21 -39l-33 -31l-43 -22l-57 -66l-16 -45l-49 10l-43 12zM735 29l15 55l26 2l19 27l30 20l2 35l-8 82l31 47l-6 47l4 47l-8 47l-13 47l9 47l-11 95l17 47l8 141l-29 94l21 47 l8 48l-14 47l12 47l-2 47l-25 47l-4 47l-29 12l-40 41l12 47v54l22 4l54 -17l49 -22l61 -6l53 -25l48 -35l71 -96l66 -22l6 -66l51 -41l25 -117l6 -57l28 -53l23 -82l-18 -41l6 -82v-41l-27 -57l12 -62l-2 -49l-28 -43l-2 -51l-56 -74l-34 -29l-15 -45l-20 -39l-45 -18 l-27 -33l-45 -12l-86 -51l-49 -37l-51 -25l-60 2l-31 -8z" />
<glyph unicode="&#xd4;" horiz-adv-x="1398" d="M82 633l16 43l-14 41l2 41l10 41l8 100l25 55l12 58l37 49l21 57l39 43l49 37l32 49l48 33l34 55l56 23l110 35l58 -11l37 11l6 -54l-11 -45l-28 -12l-23 -20l-18 -23l-29 -43l-2 -51l2 -47l10 -47l15 -47l-31 -48l16 -47l13 -47l-7 -94l-22 -47v-47l8 -47l14 -47l-4 -48 l2 -47l-14 -47l23 -47l-4 -47l6 -47l-6 -47l-3 -49l9 -31l12 -29l37 -49l31 -8l6 -55l-11 -62l-30 8l-58 -4l-47 41l-114 27l-33 31l-37 24l-31 31l-43 18l-47 76l-14 43l-33 33l-20 41l-17 45l6 53l-20 43l-37 55l20 62zM399 1468l15 23l2 20l28 37l39 29l27 39l49 18 l21 45l41 27l14 23l24 14l19 2l51 -10l27 8l22 -8l25 -23l39 -26l37 -31l12 -53l53 -15l29 -39l24 -41l19 -14l10 -25l-14 -12h-27l-55 19l-56 -23l-53 10l-24 -12l-17 25l-28 -17l-33 64l-12 45l-41 -33l-11 -49l-28 -25l-19 6l-16 -12l-49 -6l-47 4l-47 18l-33 -18z M743 -23l9 52l-2 55l51 22l4 37l22 25l-4 33l21 49l-25 94l4 47v47l19 47l-8 47l-13 48l23 94l-21 47l2 47l17 47l-11 94l11 47l6 48v47l-25 47v145l-28 17l-29 6l-23 22l15 51l-4 54l26 4l51 -27l52 -10l53 -27l57 -16l51 -27l35 -49l56 -29l47 -36l14 -64l31 -51l39 -47 l22 -56l12 -59l-18 -63l23 -37l12 -41l-14 -41l12 -82l-19 -41l21 -62l-45 -53l6 -49l-23 -45l-6 -49l-14 -43l-39 -29l-8 -47l-92 -92l-27 -37l-37 -27l-45 -10l-43 -45l-65 10l-105 -49z" />
<glyph unicode="&#xd5;" horiz-adv-x="1392" d="M82 592v43l16 41l-14 41l12 39l6 41l15 39l4 57l-12 65l53 43l6 62l45 41l16 61l50 35l43 39l22 66l59 16l54 27l49 36l59 -10l53 15l44 4l-9 -54v-47l-49 -32l-20 -23l-17 -92l8 -47l-24 -47l6 -47l-4 -48l14 -47v-94l13 -47l-17 -47l4 -47l-8 -47l14 -95l-2 -47 l-24 -47l14 -47l-6 -94l10 -47l-6 -49l23 -31l6 -31l12 -30l31 -9l28 -16l-10 -55l6 -58l-84 33l-59 -14l-47 41l-51 26l-86 27l-60 68l-20 38l-37 27l-16 43l-13 43l-37 84l-28 41l-17 47l15 62zM377 1509l6 47l47 95l25 41l28 22l41 12l33 15l35 6l39 -10l35 6l36 -25h39 l37 -10l35 -33l45 -8l49 -25l47 -2l56 56v35l30 10l27 -10l8 -35l-4 -51l-24 -76l-86 -78l-31 -33l-35 2l-39 -12l-43 14l-51 4l-57 31h-41l-33 23l-33 18l-57 10l-37 13l-33 -27l-16 -33l-11 -28l-28 -9l-27 13zM725 1339l12 54l35 -15l59 19l46 -45l65 6l105 -55l28 -58 l45 -39l39 -45l31 -51l70 -96l14 -60l20 -55l-16 -63l10 -39v-41l23 -39l-11 -41l-6 -41l2 -41l-4 -59l11 -62l-33 -43l-2 -51l-27 -41l-12 -43l-37 -31l-12 -45l-68 -57l-16 -45l-39 -23l-27 -37l-39 -22l-63 -2l-49 -33l-54 -27l-55 -16l-33 12l11 115l14 18l26 11l35 55 l13 33l10 49l-31 47l23 47l6 47v47l-10 47l12 47l-29 48l6 94l13 47l-11 47l21 47l-15 94l-6 95l15 47l2 47l-31 92l4 53l-33 10l-20 15l-23 22z" />
<glyph unicode="&#xd6;" horiz-adv-x="1390" d="M82 762l22 39l17 39l10 55l-2 59l35 50l-12 69l49 41l22 57l49 35l43 41l47 33l31 59l68 -2l55 15l47 30l53 21l35 -10l-8 -54l8 -45l-20 -28l-27 -9l-8 -26l-43 -33l20 -51l-16 -47l16 -47l-4 -47l4 -48l-8 -45l-2 -47l10 -47l-10 -94l15 -47l-3 -47l-30 -47l4 -47 l10 -45l-14 -48l22 -94l-16 -47l18 -47l-4 -49l4 -33l19 -27l6 -36l51 -21l-6 -55l14 -64l-32 4l-58 2l-53 19l-51 33l-58 14l-39 20l-36 27l-23 43l-35 25l-22 39l-66 59v53l-26 35l-13 47l-20 43l-29 43l25 66l-23 55l-10 41l6 41l2 41zM358 1597l25 52l10 59l47 41l62 6 l37 -18l41 -4l34 -23l19 -57l2 -56l-8 -51l-31 -41l-39 -43l-55 -16l-60 12l-39 43l-24 47zM717 1339v54l104 -17l101 -45h65l47 -35l27 -57l41 -41l61 -24l35 -50l6 -65l25 -51l49 -47l-23 -66l33 -53l8 -39l-12 -43l21 -39l4 -41l-11 -41l-16 -41l-8 -57l8 -62l-10 -47 l-25 -43l2 -53l-35 -33l-18 -41l-33 -31l-16 -41l-25 -36l-47 -15l-28 -33l-25 -38l-37 -27l-63 -4l-54 -23l-47 -34l-59 12l-31 -6l-12 49l10 55l53 31l23 22l20 29l-12 37l-2 47l20 47l-12 47l10 47l-4 47l2 48l9 45v47l-25 47l27 47l-9 47l-16 47l6 47l-4 47l10 47 l-12 45l10 95l-2 47l15 98l-23 49l-35 8l-18 23l-25 16zM743 1597l23 52l2 65l61 17l54 36l37 -34h41l30 -27l29 -109v-55l-76 -90l-61 16l-54 -2l-79 76z" />
<glyph unicode="&#xd8;" horiz-adv-x="1406" d="M82 741l35 88l-19 64l27 53l4 62l59 36l9 43l12 41l39 23l22 39l17 45l71 41l33 33l43 12l39 22l39 19l37 31l49 -15l64 15l-11 -56l8 -55l-63 -14l-12 -82l-23 -43l6 -47l13 -45l-23 -47l6 -48l10 -45l-10 -47l17 -45l4 -47l-23 -47l12 -45l-14 -47l8 -45l41 30l15 52 l22 45l41 30l21 48l34 32l62 78l24 43l17 43v51l10 52l-6 51l-27 43l15 39l-74 35l-19 16l21 61v56l35 -2l47 2l39 -31l39 -19l43 -12l37 -24l40 -19l23 -16l37 -15l14 39l45 23l29 35l16 45l43 -31l23 -41l-41 -74l-37 -32l-45 -25l35 -35l12 -45l39 -29l16 -98l21 -47 l2 -55l12 -53l37 -46l-18 -49l-11 -49l19 -45l-21 -43l4 -45l-8 -39l-12 -41l12 -45l-30 -35v-41l-21 -34l-22 -56l-15 -59l-39 -37l-47 -25l-20 -55l-62 -4l-26 -35l-33 -26l-90 -43l-62 14l-75 -37l14 72l-23 57l27 8l41 6l33 82l6 62l-17 26l25 47l-29 48l27 47l-6 47 l-10 47v94l14 45v47l-10 47l2 47l-47 -28l-27 -41l-33 -37l-10 -55l-47 -25l-6 -57l-33 -37l-47 -27l-12 -51l-23 -47l25 -55l-19 -56l8 -55l-6 -27l23 -77l33 -2l18 -19l23 -4l6 -57l-19 -58l-39 13l-28 -6l-39 8l-39 12l-37 20l-39 13l-33 26l-78 78l-38 -55l-43 -29 l-21 -49l-53 -20l-21 18l-22 41l22 31l43 30l17 54l28 43l-18 16l-18 37v47l-39 27l-21 57l4 64l-33 49l17 57l-12 45l-9 47v47z" />
<glyph unicode="&#xd9;" horiz-adv-x="1482" d="M109 1313l22 30l64 19l26 10l49 -24l49 14l52 10l49 -10l49 -2l51 -6l49 10l49 -6l78 2l37 6l25 -25l8 -28l-6 -39l-31 -8l-31 -19l-12 -30l-12 -80l2 -47l-19 -93l15 -47l-21 -47l11 -47l-3 -47l17 -45l4 -47l-18 -94l16 -45v-48l-21 -139l19 -47l4 -43l-16 -35l26 -47 l-12 -49l39 -41l41 -10l33 -4l6 -54l-15 -45l15 -43l-78 7l-29 -9l-65 15l-58 -2l-67 16l-105 47l-26 41l-74 23l-47 108l-21 31l15 69l-21 39l8 41l-18 50l22 49l-24 47l12 49l4 49l-20 49l24 49l-6 50l10 49l-26 49l24 49l-8 49l-12 49l22 49l-16 50l14 49l-45 55l-30 12 l-27 23zM485 1759l11 33l16 35l66 8l57 -14l88 -15l37 -39l16 -51l-16 -49l33 -37l-7 -47l2 -45l21 -41l14 -53l-41 22l-37 -6l-38 25l-33 28l-10 52l-52 14l-26 35l-19 43l-35 22l-14 21l-10 35zM870 -35l7 53l-5 43l13 43l8 -6l76 82l61 -4l35 39l37 94l-2 49l8 50l-10 47 l12 94l-10 92l16 47l-14 47l-6 94l16 48l8 47l-8 47l4 47l-20 84v31l-13 36l-28 29l-19 33l-32 20l-33 25l-23 41l19 37l24 14h45l99 -18l51 4l49 -4l49 18l37 2l53 -14l-6 -45l-25 -29l-24 -39l-27 -20l-41 -15l-14 -75l-23 -29l11 -39l-6 -47l18 -45l-29 -47l27 -47 l-29 -140l-2 -47l10 -47l5 -47l10 -45l-17 -47l25 -94l-37 -50l23 -55l-15 -47l-34 -37l-17 -61l-22 -51l-54 -31l-47 -39l-73 -37z" />
<glyph unicode="&#xda;" horiz-adv-x="1472" d="M109 1350l38 4l33 20l27 -14l51 12l49 -4l49 14l52 -20l49 8l49 -12l51 20l49 -18l51 22l25 -22l68 -14l12 -33l-19 -37l-22 -27l-37 4l-18 -34l-9 -82l11 -47l-4 -48l8 -45l-6 -47l-23 -47l23 -94l-7 -45v-47l-8 -47l2 -47l-12 -45l14 -48l-4 -47l11 -47l-15 -92l15 -43 l-13 -86l62 -78l30 -31l37 9l-8 -54l4 -45v-43l-69 -12l-27 23l-70 -27l-49 47l-76 -12l-53 55l-51 -4l-23 45l-71 25l-13 41l-30 28l-21 31l-10 37l-2 67l2 41l-8 41l14 50l-16 49l6 47l-2 49l-8 49l6 49l-2 49l2 50l-2 49l18 49l-20 49l10 98l12 49l-8 50l6 49l-6 39 l-90 55l-10 35zM741 1501l31 39l19 41l-5 45l5 45l28 39l-2 51l37 33l43 14l94 9l64 10l18 -35l4 -31l-4 -30l-22 -29l-13 -27l-32 -24l-23 -39l-35 -27l-28 -33l-41 -22l-27 -37l-16 -45l-50 10l-41 -10zM842 61l4 43l31 13l100 12l29 61l69 64l8 55l-2 49l27 50l2 47 l-23 47l13 47l-15 45l17 47l-21 47l19 94l-19 47l27 48l-18 47l6 47l16 47l-31 47l21 39l-21 29l-14 34l-25 31l-20 31l-35 18l-35 23l-6 47l12 31l23 14l41 8l51 2l49 -10l49 2l52 16l49 -4l35 -20l51 -2l4 -45l-19 -47l-38 -15l-35 -16l-21 -31l-26 -26l-15 -72l-12 -37 l-4 -47l18 -45l9 -47l-5 -47l-20 -48l23 -45l-5 -47v-47l-6 -47l-12 -47l8 -45l-6 -47l27 -47l-21 -99l-16 -49l6 -51l-6 -47l-41 -51l-21 -53l-102 -70l-41 -10l-27 -39l-55 -17l-41 -8l2 53z" />
<glyph unicode="&#xdb;" horiz-adv-x="1472" d="M109 1272l8 67l22 25l37 -6l27 6l49 16l51 -18l49 8l49 -2l52 8l49 -16l49 14l51 -12l49 -6l27 8l39 6l31 -22l-7 -35l-8 -29l-20 -22l-56 -41l-18 -37l25 -47l-2 -47l-17 -48l-4 -45l23 -47l-19 -47l21 -47l-25 -47l23 -45l-27 -47l14 -47l4 -47v-45l-10 -48l-4 -47 l27 -47l-29 -45l6 -47l17 -43l-3 -35l11 -47l-4 -47l43 -31l24 -41l39 9l-6 -48l18 -45l-12 -43l-72 -8l-26 12l-70 -12l-55 12l-60 43l-106 37l-31 31l-59 37l-23 33l-51 57l-14 35l4 67l-19 39l15 93l14 49l-4 47l-10 49l-19 49l4 49l-4 49l11 99v98l4 49l16 49l-27 49 l-4 50l15 49l-15 33l-16 26l-31 10zM477 1475l4 16l8 12l21 47l31 33l37 31l45 22l14 52l45 22l12 27l27 14l22 4l52 -18l30 14l23 -8l18 -33l33 -33l72 -61l18 -47l51 -19l27 -39l8 -24l10 -17l-20 -6l-14 -16l-56 4l-55 14l-53 4l-25 -14l-18 14l-17 3l-6 20l-41 27 l-26 36l-11 -32l-36 -31v-25l-13 -14l-16 -6l-21 6h-49l-47 12l-47 -12l-29 10zM842 61l2 43l28 15l93 31l39 36l30 37l17 39l36 45l5 51l-17 50l6 47l19 47l-15 47v45l15 47l-4 94l-19 47l23 47l-25 48l4 47l29 47l-21 47l-4 47l9 39l-5 33l-26 28l-23 33l-12 43l-35 21 l-41 12l-16 43l22 29l19 18l43 12l49 -10l51 -2l49 6l50 -6l51 -12l35 16l59 -59l-35 -31l-35 -18l-28 -25l-15 -39l-24 -27l-19 -67l2 -37l-14 -47l14 -45l-10 -47l16 -47l-16 -48l19 -45l-13 -47v-47l8 -47l-14 -47l-4 -45l10 -47l15 -47l-19 -47l-22 -99l4 -51l-21 -43 l-35 -49l-14 -55l-31 -56l-73 -6l-29 -33l-33 -24l-51 -33l-43 23l4 32z" />
<glyph unicode="&#xdc;" horiz-adv-x="1476" d="M109 1313l43 49l36 -4h27l47 6l49 16l49 -20l50 12l49 -2l49 8l47 -6l49 4l49 -22l27 12l33 -18l39 2l-4 -37l-15 -29l-18 -24l-31 -13l-29 -26l-12 -37l27 -47l-27 -47l-6 -48l8 -45l14 -47l-6 -47l15 -47l2 -47l-21 -45l2 -47l17 -47l-23 -92l17 -48l4 -94l-11 -45 l4 -47l-8 -43l-2 -35l27 -47l-2 -43l37 -33l32 -20l31 -14l-14 -48l16 -45l-4 -43l-24 -8l-134 10l-55 11l-63 22l-76 6l-35 27l-33 33l-63 35l-8 47l-39 63l-9 35l-32 61l18 43l4 41l-10 50l-14 49l12 47l-4 49l-8 49l10 49l6 99l-2 49l-6 49l14 49l6 49l-8 49l-12 49 l-8 50l30 49l-12 39l-31 30l-34 4zM391 1597l31 54l12 61l51 35l60 6l39 -14l30 -21l37 -16l35 -47l23 -58l-29 -53l-21 -59l-63 -6l-51 -37l-58 16l-34 47l-35 39zM770 1597l39 52l8 63l60 12l51 41l37 -32l43 4l34 -25l37 -51l-4 -64l-16 -53l-23 -53l-57 -14l-51 -27 l-62 -2l-35 53l-53 35zM842 61v43l121 52l47 26l43 31l26 39v57l11 99l14 47l-19 47l17 47l6 45l-12 47l-17 47v47l8 47l-10 47l23 48l-23 47l31 47l-14 47l2 47l-15 37l9 35l-17 34l-14 41l-45 13l-23 37l-33 18l-10 37l8 31l19 18h45l49 -4l51 10l99 -20l51 2l35 14 l34 -29l27 -30l-33 -37l-30 -27l-29 -20l-23 -29l-28 -25l-17 -34v-119l6 -45l-8 -47l-16 -47l20 -48l-14 -45l8 -47l-10 -47l-4 -47l18 -92l6 -47l-14 -47l8 -47l-12 -50l10 -55l-22 -45l-4 -47l-33 -55l-123 -125l-33 -21l-41 -4l-51 -45l-43 15l2 36z" />
<glyph unicode="&#x152;" horiz-adv-x="1896" d="M82 631l16 41l-10 41l16 39l-8 43l19 36l16 56l10 57l2 62l41 45l13 61l53 33l14 65l51 33l31 55l66 5l45 43l108 40l56 -10l30 8l6 -108l-28 -6l-21 -23l-8 -26l-41 -33l10 -96l9 -48l2 -47l-23 -92l-6 -47v-47l8 -47l12 -47l-10 -94l17 -48l-13 -47v-45l-16 -47l20 -47 l2 -47l11 -47l-33 -47l24 -49l11 -29l-6 -37l28 -20l19 -29l30 -2l-10 -55l12 -56l-30 4l-52 25l-63 -20l-57 20l-82 68l-25 38l-78 44l-30 30l-11 45l-61 68l2 49l-37 37l-22 43l-13 49l-6 59l10 60zM725 1384l39 -14l41 -4l72 6l43 -18l45 26l45 -28h47l45 24l45 -4 l45 -20l45 4l45 16l-16 -53l20 -47l10 -47l-8 -47l-4 -48l12 -47v-94l-6 -47l-10 -47l-4 -47l16 -47l-16 -47v-47l6 -48l-12 -47l28 -47l-22 -47l18 -47l-24 -47l12 -94l-12 -47l4 -47l20 -48l-18 -47l12 -47l-2 -47l6 -47l-55 4l-45 -20l-45 28l-45 -18l-45 16l-47 6 l-45 -18l-45 14l-46 -24l-22 -4l-51 8l-35 -23l-23 4l11 56l-15 57h23l24 31l43 14l-8 96l4 49l-2 48l15 49l2 49l6 47l-15 49l19 49v47l-23 50l-10 47l25 49l-21 49l2 47l-4 49l10 49l-4 47l19 50l-23 47l10 49l-14 33l-6 43l-51 49l-17 4zM1346 1366l106 -14l45 18h45 l45 -12l90 -6l90 6l13 -43l4 -51l-33 -52l-2 -51l12 -49l-8 -51l2 -51l-6 -39l-29 -25l-30 17l-31 30v33l-25 21l-8 40l-31 23l-10 49l-49 10l-18 45l-39 21l-45 -4l-37 8l-35 21l10 47zM1348 53l16 56l18 4l78 28l49 -2l23 54l49 8l14 45l25 30l27 27l6 25l28 41l13 30 l20 17l19 -2l26 10l15 -23v-30l12 -19l-10 -49l-4 -51l-9 -51l6 -49l17 -52l-17 -49l-4 -51l-30 -12h-47l-48 12l-45 -12l-47 4l-47 22l-47 2l-47 -2l-45 -12zM1354 696l16 58l21 6l18 24l25 15l14 30l27 21l26 49l4 33l15 26l24 15l27 -6l28 -27l-14 -55v-47l8 -47l-6 -50 l8 -47l-8 -47l-2 -47v-49l-6 -47l10 -37l-14 -31l-29 -16l-33 4l-26 29l-4 28l6 33l-62 76l-16 33l-29 14h-20z" />
<glyph unicode="&#x178;" horiz-adv-x="1316" d="M47 1313l23 35l24 14l86 14l49 -6l50 8l49 -30l49 30h100l49 4l49 -20l50 14l34 -20l27 -10l31 -31l-25 -31l-14 -24l-31 -17l-31 -22l2 -27l27 -29l21 -43l24 -43l10 -49l7 -49l59 -135l41 -35l2 -53l35 -37l16 -47l27 -41l-21 -55l23 -48l-2 -49l2 -49l-31 -49l16 -47 l-6 -49l9 -49l-15 -48l23 -38l26 -25l39 -14l29 -23l10 -35l2 -43l-41 -10h-43l-33 6l-49 -2l-51 -6l-49 14l-51 -8l-49 8l-50 -18l-100 -6l-51 16l-33 -8l-43 6l-33 16l-6 35l8 37l29 31l47 -12l13 43l26 36l-20 48l20 49l-18 49l28 47l-26 49l8 47l2 49l-10 50l-27 40 l-33 39l2 56l-45 86l-14 47l-20 43l-17 47l-12 47l-25 43l-30 41l-2 51l-39 37l-19 45v23l-35 41l-43 8zM322 1538l12 59l-2 58l86 63l49 17l39 6l31 -21l34 -18l27 -49l6 -56l14 -61l-45 -45l-53 -18l-53 -3l-59 -16zM696 1534l23 63l-10 60l39 45l38 51l62 -6h41l31 -29 l41 -8l14 -59l41 -54l-33 -55l-41 -37l-37 -43l-57 -14l-49 27l-60 14zM836 1305l34 51l33 16l45 -4l49 10l50 -24l49 24l51 4l49 -10l41 -16l12 -17l13 -30l6 -29l-19 -16l-28 -15l-33 -6l-37 -18l-68 -78l-8 -60l-24 -43v-55l-54 -31l-14 -49l2 -55l-47 -35l-20 -47 l-13 -49l-10 43l-43 86l29 45l30 98l56 88l-9 43l15 43l-2 45l-33 25l-31 10l-33 23l-10 12z" />
<glyph unicode="&#x2c6;" horiz-adv-x="1062" d="M219 1466l6 27l43 59l45 21l23 45l45 20l35 33l39 68l26 16l25 -4l51 -14l27 6l16 -14l41 -3l21 -49l26 -39l49 -16l23 -45l35 -35l20 -43l31 -4l-12 -20l2 -17l-25 -6l-55 -8l-54 31l-55 -15l-22 -2l-19 17l-24 -13l-4 29l-33 31l-19 43l-28 -35l-15 -45l-18 -15l-8 -20 l-19 6l-20 -2l-47 4l-47 -8l-50 20l-30 -18z" />
<glyph unicode="&#x2dc;" horiz-adv-x="1126" d="M211 1509l4 47l18 43l31 48l17 47l28 22l39 17l39 -2l33 14l39 -12l30 -7l43 -2l70 -24l41 -21l45 -4l10 -24l37 -15l41 27l29 14l29 21l14 24l18 7l17 -7l30 -22l-34 -92l-37 -60l-11 -37l-34 -32l-43 -13l-31 -14h-41l-41 8l-37 -14l-14 18l-68 11l-35 16l-34 10 l-29 29l-35 14l-20 2l-35 -14l-37 4l-6 -41l-19 -22l-28 -13z" />
<glyph unicode="&#x2000;" horiz-adv-x="917" />
<glyph unicode="&#x2001;" horiz-adv-x="1835" />
<glyph unicode="&#x2002;" horiz-adv-x="917" />
<glyph unicode="&#x2003;" horiz-adv-x="1835" />
<glyph unicode="&#x2004;" horiz-adv-x="611" />
<glyph unicode="&#x2005;" horiz-adv-x="458" />
<glyph unicode="&#x2006;" horiz-adv-x="305" />
<glyph unicode="&#x2007;" horiz-adv-x="305" />
<glyph unicode="&#x2008;" horiz-adv-x="229" />
<glyph unicode="&#x2009;" horiz-adv-x="367" />
<glyph unicode="&#x200a;" horiz-adv-x="101" />
<glyph unicode="&#x2013;" horiz-adv-x="1316" d="M0 580l14 38l-4 37l33 2l41 -12l82 27l39 -19l41 -14l41 25l41 2l41 -19l39 -4l41 14l40 -18l41 6l39 -4l41 29l41 -8l41 2l41 8l80 -13l41 -10l41 13l41 4l39 -25l41 12l41 6l82 -2l39 17l41 -8l41 -25l40 4l5 -27l12 -38l-4 -37l-19 -37l-34 16l-41 -4l-41 -14l-39 -4 l-41 8l-41 -23l-41 33l-41 -26l-39 -7l-41 13l-41 20l-41 6l-41 -10l-39 -27l-41 15l-82 -17l-41 33l-39 -29l-41 5l-40 -2l-41 28l-39 -28l-41 -3l-41 33l-41 -26l-41 6l-39 -6h-41l-41 24l-41 4l-41 -12z" />
<glyph unicode="&#x2014;" horiz-adv-x="1630" d="M82 625l31 55l-21 55l49 -10l49 27l48 -31l49 18l47 -20l49 20l47 4l49 9l49 -31l97 24l96 -20l47 8l49 17l47 -25l49 27l50 -13l47 2l49 9l47 -21l49 -6l47 16l49 -10l47 14l50 -18l49 6l47 -6l96 6l-18 -51l10 -55l16 -56l-104 15l-47 -11l-49 7l-50 2l-47 -21l-49 23 l-47 -6h-96l-49 -13l-47 10l-50 -4l-49 -8h-47l-49 4l-47 -2l-49 -8h-47l-50 16l-47 -6l-49 13l-49 -2l-47 -9l-96 -8l-97 17h-49l-47 8z" />
<glyph unicode="&#x2018;" d="M178 956v45l29 66l8 43v47l23 45l34 35l45 33l50 22l28 72l90 29l68 12l39 -6l10 -39l-18 -21l-19 -30l-51 -15l-43 -28l-47 -23l-14 -59l-11 -25l4 -12l46 8l53 -29l53 -47l10 -69l19 -60l-4 -37l4 -43l-35 -24l-8 -41l-41 -10l-29 -23l-35 -16l-39 12l-49 -10l-45 20 l-31 35l-39 27l-18 39l-6 41z" />
<glyph unicode="&#x2019;" horiz-adv-x="579" d="M76 1225l22 37l8 38l21 31l47 62l43 -2l31 24l39 -4l43 -18l45 -9l31 -30l36 -25l25 -33l4 -43l14 -39l2 -40l19 -74l-41 -80l-62 -78l-84 -63l-47 -48l-47 -38l-30 -5l-25 -22l-41 -12l-29 28l-12 29l2 29l31 22l49 15l41 32l31 39l41 37l12 33l-12 16h-47l-50 23 l-47 47l-39 55z" />
<glyph unicode="&#x201c;" horiz-adv-x="1263" d="M178 1001l33 64l-2 45l8 43l66 74l43 33l36 34l39 58l45 45l64 10h41l29 -16l4 -27l-6 -21l-19 -28l-41 -31l-43 -27l-31 -38l-61 -19v-43l16 -16l47 8l56 -21l28 -65l31 -53l29 -62l6 -39l-33 -30l-20 -29l-13 -37l-36 -12l-23 -33l-39 -6l-37 6l-43 18l-49 -4l-33 33 l-26 33l-43 24l10 50l-21 36zM662 958l14 111l20 37l58 127l45 31l20 57l62 29l47 43l37 -7l28 9l35 26l25 -35l30 -26l-16 -25l-31 -20l-47 -19l-33 -43l-49 -16l-45 -37l-2 -43l19 -14l43 -13h57l39 -61l39 -53l30 -68l-22 -37l-43 -61l-18 -35l-33 -12l-29 -17l-33 -26 l-37 10l-47 -6l-41 27l-47 12l-30 35l-21 39l-8 43z" />
</font>
</defs>
</svg>
